<?xml version="1.0" encoding="UTF-8" standalone="no"?>
<!-- Created with Inkscape (http://www.inkscape.org/) -->

<svg
   xmlns:dc="http://purl.org/dc/elements/1.1/"
   xmlns:cc="http://creativecommons.org/ns#"
   xmlns:rdf="http://www.w3.org/1999/02/22-rdf-syntax-ns#"
   xmlns:svg="http://www.w3.org/2000/svg"
   xmlns="http://www.w3.org/2000/svg"
   xmlns:sodipodi="http://sodipodi.sourceforge.net/DTD/sodipodi-0.dtd"
   xmlns:inkscape="http://www.inkscape.org/namespaces/inkscape"
   width="200"
   height="150"
   id="svg2"
   sodipodi:version="0.32"
   inkscape:version="0.91 r13725"
   version="1.1"
   sodipodi:docname="colorpickerdialog.svg"
   inkscape:export-filename="/home/flo/wanadev/devel/public/PhotonUI/photonui-site/source/doc/widgets/colorpickerdialog.png"
   inkscape:export-xdpi="90"
   inkscape:export-ydpi="90">
  <defs
     id="defs4" />
  <sodipodi:namedview
     id="base"
     pagecolor="#4ec8db"
     bordercolor="#666666"
     borderopacity="1.0"
     inkscape:pageopacity="0"
     inkscape:pageshadow="2"
     inkscape:zoom="1"
     inkscape:cx="69.199089"
     inkscape:cy="97.023169"
     inkscape:document-units="px"
     inkscape:current-layer="layer1"
     inkscape:window-width="1920"
     inkscape:window-height="1014"
     inkscape:window-x="0"
     inkscape:window-y="27"
     showgrid="false"
     units="px"
     inkscape:window-maximized="1" />
  <metadata
     id="metadata7">
    <rdf:RDF>
      <cc:Work
         rdf:about="">
        <dc:format>image/svg+xml</dc:format>
        <dc:type
           rdf:resource="http://purl.org/dc/dcmitype/StillImage" />
        <dc:title />
      </cc:Work>
    </rdf:RDF>
  </metadata>
  <g
     inkscape:label="Calque 1"
     inkscape:groupmode="layer"
     id="layer1"
     transform="translate(0,-902.36216)">
    <rect
       style="opacity:1;fill:none;fill-opacity:1;stroke:#ffffff;stroke-width:4;stroke-linecap:round;stroke-linejoin:miter;stroke-miterlimit:4;stroke-dasharray:none;stroke-dashoffset:0;stroke-opacity:1"
       id="rect4133"
       width="191"
       height="136"
       x="5"
       y="909.36206"
       rx="4"
       ry="4" />
    <path
       style="opacity:1;fill:#ffffff;fill-opacity:1;stroke:none;stroke-width:4;stroke-linecap:round;stroke-linejoin:miter;stroke-miterlimit:4;stroke-dasharray:none;stroke-dashoffset:0;stroke-opacity:1"
       d="M 6 7 L 6 42 L 195 42 L 195 7 L 6 7 z M 51.023438 12.609375 L 53.689453 12.609375 L 53.689453 35.146484 L 51.023438 35.146484 L 51.023438 12.609375 z M 21.578125 13.130859 C 22.872023 13.130859 24.089113 13.30473 25.228516 13.652344 C 26.377574 13.990304 27.454765 14.501927 28.458984 15.1875 L 28.458984 18.273438 C 27.474077 17.356124 26.420872 16.670624 25.300781 16.216797 C 24.190347 15.762964 23.007228 15.535156 21.751953 15.535156 C 19.280029 15.535156 17.387429 16.292607 16.074219 17.808594 C 14.761009 19.31492 14.105469 21.497302 14.105469 24.355469 C 14.105469 27.203975 14.761009 29.386364 16.074219 30.902344 C 17.387429 32.408677 19.280029 33.162109 21.751953 33.162109 C 23.007228 33.162109 24.190347 32.934302 25.300781 32.480469 C 26.420872 32.026642 27.474077 31.341148 28.458984 30.423828 L 28.458984 33.480469 C 27.435453 34.175702 26.348277 34.697309 25.199219 35.044922 C 24.059816 35.392535 22.852711 35.566406 21.578125 35.566406 C 18.304757 35.566406 15.726661 34.567139 13.84375 32.568359 C 11.960839 30.559919 11.019531 27.821955 11.019531 24.355469 C 11.019531 20.879322 11.960839 18.141358 13.84375 16.142578 C 15.726661 14.134138 18.304757 13.130859 21.578125 13.130859 z M 175.11914 17.527344 L 180.60938 23.017578 L 186.09766 17.527344 L 187.52148 18.974609 L 182.05664 24.464844 L 187.52148 29.931641 L 186.09766 31.378906 L 180.60938 25.888672 L 175.11914 31.378906 L 173.70703 29.931641 L 179.16211 24.464844 L 173.70703 18.974609 L 175.11914 17.527344 z M 39.175781 18.533203 C 41.49321 18.533203 43.313853 19.286642 44.636719 20.792969 C 45.959585 22.299295 46.621094 24.385735 46.621094 27.050781 C 46.621094 29.706168 45.959585 31.790654 44.636719 33.306641 C 43.313853 34.812967 41.49321 35.566406 39.175781 35.566406 C 36.848696 35.566406 35.024037 34.812967 33.701172 33.306641 C 32.387962 31.790654 31.732422 29.706168 31.732422 27.050781 C 31.732422 24.385735 32.387962 22.299295 33.701172 20.792969 C 35.024037 19.286642 36.848696 18.533203 39.175781 18.533203 z M 65.537109 18.533203 C 67.854538 18.533203 69.675181 19.286642 70.998047 20.792969 C 72.320913 22.299295 72.982422 24.385735 72.982422 27.050781 C 72.982422 29.706168 72.320913 31.790654 70.998047 33.306641 C 69.675181 34.812967 67.854538 35.566406 65.537109 35.566406 C 63.210024 35.566406 61.385365 34.812967 60.0625 33.306641 C 58.74929 31.790654 58.091797 29.706168 58.091797 27.050781 C 58.091797 24.385735 58.74929 22.299295 60.0625 20.792969 C 61.385365 19.286642 63.210024 18.533203 65.537109 18.533203 z M 85.423828 18.533203 C 85.607291 18.533203 85.809163 18.547172 86.03125 18.576172 C 86.253337 18.595505 86.499165 18.629481 86.769531 18.677734 L 86.785156 21.416016 C 86.485822 21.242209 86.158052 21.116309 85.800781 21.039062 C 85.453167 20.952156 85.065487 20.908203 84.640625 20.908203 C 83.134296 20.908203 81.977116 21.401812 81.166016 22.386719 C 80.364572 23.361972 79.962891 24.766929 79.962891 26.601562 L 79.962891 35.146484 L 77.283203 35.146484 L 77.283203 18.923828 L 79.962891 18.923828 L 79.962891 21.445312 C 80.522936 20.460399 81.252387 19.730953 82.150391 19.257812 C 83.048394 18.775019 84.139586 18.533203 85.423828 18.533203 z M 39.175781 20.792969 C 37.7467 20.792969 36.617521 21.35257 35.787109 22.472656 C 34.956697 23.583096 34.541016 25.109935 34.541016 27.050781 C 34.541016 28.991628 34.952682 30.520538 35.773438 31.640625 C 36.60385 32.751065 37.737044 33.306641 39.175781 33.306641 C 40.595207 33.306641 41.720369 32.747046 42.550781 31.626953 C 43.381193 30.50686 43.796875 28.981968 43.796875 27.050781 C 43.796875 25.129241 43.381193 23.608368 42.550781 22.488281 C 41.720369 21.358535 40.595207 20.792969 39.175781 20.792969 z M 65.537109 20.792969 C 64.108028 20.792969 62.97885 21.35257 62.148438 22.472656 C 61.318026 23.583096 60.902344 25.109935 60.902344 27.050781 C 60.902344 28.991628 61.312058 30.520538 62.132812 31.640625 C 62.963226 32.751065 64.098372 33.306641 65.537109 33.306641 C 66.956535 33.306641 68.081697 32.747046 68.912109 31.626953 C 69.742521 30.50686 70.158203 28.981968 70.158203 27.050781 C 70.158203 25.129241 69.742521 23.608368 68.912109 22.488281 C 68.081697 21.358535 66.956535 20.792969 65.537109 20.792969 z "
       transform="translate(0,902.36216)"
       id="rect4171" />
    <g
       id="g4158"
       transform="matrix(0.81111321,0,0,0.81111321,56.944278,954.3065)"
       style="fill:#ffffff">
      <g
         id="g4160"
         style="fill:#ffffff">
        <path
           id="path4162"
           d="m 91.645,8.355 c -4.474,-4.474 -11.727,-4.474 -16.2,0 l -13.5,13.501 -3.727,-3.727 c -1.959,-1.959 -5.134,-1.959 -7.093,0 -1.959,1.959 -1.959,5.134 0,7.093 l 3.727,3.727 -41.51,41.508 c -2.039,2.039 -3.149,4.656 -3.329,7.324 -0.073,1.087 -0.347,3.105 -0.675,5.292 -0.053,0.359 -0.212,0.706 -0.487,0.983 l -3.105,3.106 c -0.994,0.994 -0.994,2.606 0,3.6 l 3.493,3.493 c 0.994,0.994 2.606,0.994 3.6,0 l 3.106,-3.105 c 0.277,-0.275 0.622,-0.433 0.981,-0.486 2.187,-0.329 4.205,-0.602 5.293,-0.675 2.668,-0.18 5.285,-1.29 7.325,-3.33 l 41.508,-41.508 3.727,3.727 c 1.959,1.959 5.134,1.959 7.093,0 1.959,-1.959 1.959,-5.134 0,-7.093 l -12.365,-12.366 9.697,7.577 12.44,-12.441 c 4.475,-4.473 4.474,-11.726 10e-4,-16.2 z m -26.594,34.394 -20.53,20.53 c -0.994,0.994 -2.606,0.994 -3.6,0 l -3.27,-3.27 c -0.994,-0.993 -2.605,-0.993 -3.599,10e-4 l -0.616,0.616 -0.002,-0.002 -14.728,14.727 c -0.337,0.337 -0.819,0.401 -1.076,0.143 -0.257,-0.258 -0.194,-0.74 0.143,-1.076 l 23.841,-23.841 0.004,0.004 15.633,-15.633 c 0.994,-0.994 2.606,-0.994 3.6,0 l 4.2,4.201 c 0.994,0.994 0.994,2.606 0,3.6 z"
           inkscape:connector-curvature="0"
           style="fill:#ffffff" />
      </g>
    </g>
  </g>
</svg>
