<?xml version="1.0" encoding="UTF-8" standalone="no"?>
<!-- Created with Inkscape (http://www.inkscape.org/) -->

<svg
   xmlns:dc="http://purl.org/dc/elements/1.1/"
   xmlns:cc="http://creativecommons.org/ns#"
   xmlns:rdf="http://www.w3.org/1999/02/22-rdf-syntax-ns#"
   xmlns:svg="http://www.w3.org/2000/svg"
   xmlns="http://www.w3.org/2000/svg"
   xmlns:sodipodi="http://sodipodi.sourceforge.net/DTD/sodipodi-0.dtd"
   xmlns:inkscape="http://www.inkscape.org/namespaces/inkscape"
   width="200"
   height="150"
   id="svg2"
   sodipodi:version="0.32"
   inkscape:version="0.91 r13725"
   version="1.1"
   sodipodi:docname="color.svg"
   inkscape:export-filename="/home/flo/wanadev/devel/public/PhotonUI/photonui-site/source/doc/widgets/color.png"
   inkscape:export-xdpi="90"
   inkscape:export-ydpi="90">
  <defs
     id="defs4" />
  <sodipodi:namedview
     id="base"
     pagecolor="#4ec8db"
     bordercolor="#666666"
     borderopacity="1.0"
     inkscape:pageopacity="0"
     inkscape:pageshadow="2"
     inkscape:zoom="1"
     inkscape:cx="-83.344449"
     inkscape:cy="54.942806"
     inkscape:document-units="px"
     inkscape:current-layer="layer1"
     inkscape:window-width="1920"
     inkscape:window-height="1041"
     inkscape:window-x="1920"
     inkscape:window-y="0"
     showgrid="false"
     units="px"
     inkscape:window-maximized="1" />
  <metadata
     id="metadata7">
    <rdf:RDF>
      <cc:Work
         rdf:about="">
        <dc:format>image/svg+xml</dc:format>
        <dc:type
           rdf:resource="http://purl.org/dc/dcmitype/StillImage" />
        <dc:title />
      </cc:Work>
    </rdf:RDF>
  </metadata>
  <g
     inkscape:label="Calque 1"
     inkscape:groupmode="layer"
     id="layer1"
     transform="translate(0,-902.36216)">
    <path
       style="fill:#ffffff"
       d="m 93.19003,1022.3601 c -0.25114,-0.1079 -0.73915,-0.2035 -1.08446,-0.2123 -0.34531,-0.01 -0.62785,-0.1187 -0.62785,-0.2443 0,-0.1256 -0.25684,-0.2283 -0.57075,-0.2283 -0.31393,0 -0.57077,-0.1027 -0.57077,-0.2284 0,-0.1256 -0.25685,-0.2283 -0.57077,-0.2283 -0.31393,0 -0.57077,-0.1027 -0.57077,-0.2283 0,-0.1256 -0.15844,-0.2283 -0.3521,-0.2283 -0.19365,0 -0.47619,-0.1061 -0.62783,-0.2359 -0.44884,-0.3841 -2.93938,-1.8188 -3.15726,-1.8188 -0.11038,0 -0.20064,-0.1027 -0.20064,-0.2283 0,-0.1256 -0.10489,-0.2283 -0.2332,-0.2283 -0.31171,0 -2.06971,-1.1465 -2.53326,-1.6521 -0.20308,-0.2215 -0.48561,-0.4027 -0.62785,-0.4027 -0.14223,0 -0.2586,-0.1027 -0.2586,-0.2283 0,-0.1256 -0.1541,-0.2283 -0.34246,-0.2283 -0.18835,0 -0.34246,-0.1027 -0.34246,-0.2283 0,-0.1256 -0.10736,-0.2283 -0.23869,-0.2283 -0.13122,0 -0.47576,-0.2312 -0.76551,-0.5137 -0.74233,-0.7238 -1.71975,-1.5411 -1.84307,-1.5411 -0.38568,0 -10.16622,-9.7939 -10.16622,-10.1801 0,-0.1029 -0.26653,-0.414 -1.54107,-1.7982 -0.28252,-0.3068 -0.51369,-0.6652 -0.51369,-0.7965 0,-0.1312 -0.1027,-0.2387 -0.22831,-0.2387 -0.12559,0 -0.22831,-0.1541 -0.22831,-0.34245 0,-0.18835 -0.1027,-0.34246 -0.22829,-0.34246 -0.1256,0 -0.22831,-0.11641 -0.22831,-0.2586 0,-0.14224 -0.1871,-0.42477 -0.41578,-0.62785 -0.22866,-0.20308 -0.61039,-0.70314 -0.84829,-1.11123 -0.23789,-0.4081 -0.51312,-0.742 -0.61161,-0.742 -0.0984,0 -0.17909,-0.1584 -0.17909,-0.352 0,-0.19361 -0.20548,-0.57257 -0.45661,-0.84214 -0.25114,-0.26955 -0.45662,-0.62484 -0.45662,-0.78952 0,-0.16469 -0.1027,-0.2994 -0.22831,-0.2994 -0.1256,0 -0.22829,-0.14678 -0.22829,-0.32617 0,-0.17938 -0.12903,-0.4619 -0.2867,-0.62784 -0.15768,-0.16593 -0.52851,-0.81538 -0.82406,-1.44322 -0.29555,-0.62785 -0.62886,-1.31994 -0.74069,-1.53796 -0.11189,-0.21806 -0.20332,-0.55196 -0.20332,-0.74203 0,-0.19004 -0.0915,-0.34554 -0.20333,-0.34554 -0.26929,0 -0.49552,-1.28701 -0.63206,-3.59583 -0.0744,-1.25861 -0.03,-1.88352 0.13369,-1.88352 0.13478,0 0.24508,-0.10723 0.24508,-0.2383 0,-0.31314 31.18079,-31.49636 31.49391,-31.49636 0.13246,0 0.24075,-0.0893 0.24075,-0.19846 0,-0.10915 0.6232,-0.46874 1.38489,-0.79908 2.201,-0.95456 4.31298,-0.7699 6.15064,0.53776 1.50511,1.07102 4.7192,4.4665 4.88115,5.15661 0.60816,2.59159 0.82461,4.11446 0.82484,5.80337 2.3e-4,2.11603 -0.451,5.48128 -0.73505,5.48128 -0.0979,0 -0.17791,0.30822 -0.17791,0.68491 0,0.37671 -0.10269,0.68492 -0.22831,0.68492 -0.12559,0 -0.22831,0.20548 -0.22831,0.45662 0,0.2914 -0.15219,0.45661 -0.42065,0.45661 -0.24659,0 -0.59874,0.33068 -0.85099,0.79908 -0.23669,0.43949 -0.50971,0.79908 -0.60672,0.79908 -0.0971,0 -0.17639,0.20546 -0.17639,0.4566 0,0.25114 -0.1027,0.45662 -0.22831,0.45662 -0.13423,0 -0.22831,0.79907 -0.22831,1.94061 0,1.14154 0.0941,1.9406 0.22831,1.9406 0.1256,0 0.22831,0.20981 0.22831,0.46626 0,0.50419 0.1815,0.76749 1.30033,1.88631 1.06932,1.06932 1.38178,1.30034 1.7587,1.30034 0.18624,0 0.40211,0.1027 0.47972,0.22831 0.0776,0.1256 1.00832,0.22831 2.06825,0.22831 1.13254,0 1.92712,-0.0942 1.92712,-0.22831 0,-0.1256 0.16145,-0.22831 0.35878,-0.22831 0.19732,0 0.50196,-0.12847 0.67699,-0.28538 0.75549,-0.67751 1.01373,-0.85616 1.23767,-0.85616 0.1308,0 0.23793,-0.18278 0.23793,-0.4062 0,-0.22341 0.20548,-0.55431 0.45662,-0.73532 0.25114,-0.18102 0.45661,-0.55721 0.45661,-0.836 0,-0.2788 0.1027,-0.57039 0.22831,-0.648 0.52639,-0.32532 0.0498,-4.68028 -0.51221,-4.68028 -0.095,0 -0.17271,-0.11737 -0.17271,-0.26067 0,-0.14337 -0.3339,-0.57934 -0.74199,-0.96883 -0.74192,-0.70808 -0.74202,-0.70847 -0.90166,-3.67762 -0.22411,-4.16827 -0.43138,-6.05162 -0.66601,-6.05162 -0.11093,0 -0.20171,-0.56506 -0.20171,-1.25568 0,-0.69064 -0.1027,-1.25569 -0.22831,-1.25569 -0.1256,0 -0.22831,-0.35958 -0.22831,-0.79908 0,-0.43948 -0.1027,-0.79906 -0.22831,-0.79906 -0.1256,0 -0.22979,-0.23117 -0.23163,-0.51371 -0.004,-0.60081 -0.51307,-2.12753 -1.14753,-3.44073 -0.24601,-0.50918 -0.4473,-1.06059 -0.4473,-1.22536 0,-0.16476 -0.10269,-0.29957 -0.22829,-0.29957 -0.1256,0 -0.22831,-0.32535 -0.22831,-0.72298 0,-0.39763 -0.0621,-0.66087 -0.13801,-0.58495 -0.076,0.076 -0.45264,-0.47203 -0.83718,-1.21763 -0.38454,-0.74562 -0.78475,-1.35566 -0.88937,-1.35566 -0.10462,0 -0.19021,-0.18279 -0.19021,-0.4062 0,-0.22343 -0.20547,-0.55432 -0.45661,-0.73534 -0.25114,-0.181 -0.45662,-0.40838 -0.45662,-0.50527 0,-0.66983 -3.89511,-4.2811 -4.6232,-4.2863 -0.21976,-10e-4 -0.39954,-0.10558 -0.39954,-0.23117 0,-0.1256 -0.30822,-0.22831 -0.68492,-0.22831 -0.37671,0 -0.68492,-0.1027 -0.68492,-0.2283 0,-0.13838 -0.98934,-0.22831 -2.51138,-0.22831 -1.52205,0 -2.51138,0.0899 -2.51138,0.22831 0,0.1256 -0.35958,0.2283 -0.79906,0.2283 -0.4395,0 -0.79908,0.1027 -0.79908,0.22831 0,0.12559 -0.1555,0.22831 -0.34556,0.22831 -0.5243,0 -1.7019,0.7575 -2.75065,1.76937 -0.16267,0.15697 -0.41192,0.28539 -0.55386,0.28539 -0.14196,0 -0.1987,0.0961 -0.12615,0.21356 0.0727,0.11751 -0.12683,0.47237 -0.44314,0.7887 -0.31631,0.31632 -0.57513,0.68254 -0.57513,0.81382 0,0.13122 -0.0838,0.23867 -0.18633,0.23867 -0.10242,0 -0.47454,0.64211 -0.82679,1.42692 -0.35226,0.78481 -0.73074,1.60532 -0.84105,1.82336 -0.11037,0.21804 -0.20058,0.65468 -0.20058,0.97031 0,0.31562 -0.0908,0.57386 -0.20171,0.57386 -0.11093,0 -0.26128,0.64211 -0.33407,1.42692 -0.30989,3.34103 -0.58891,4.24995 -1.56341,5.09303 -0.64717,0.55989 -2.83155,0.74506 -3.6462,0.30907 -0.58733,-0.31432 -1.10383,-0.78561 -1.10383,-1.00719 0,-0.0808 -0.1541,-0.30089 -0.34246,-0.48923 -0.62298,-0.62298 -0.19585,-6.23007 0.58425,-7.66964 0.1182,-0.21804 0.21483,-0.65469 0.21483,-0.97031 0,-0.31563 0.1027,-0.57387 0.22831,-0.57387 0.1256,0 0.2283,-0.25684 0.2283,-0.57077 0,-0.31391 0.1027,-0.57077 0.22831,-0.57077 0.1256,0 0.22857,-0.17978 0.2289,-0.39952 2.2e-4,-0.21976 0.3599,-0.99543 0.79907,-1.72374 0.43916,-0.72831 0.79849,-1.39911 0.79849,-1.49066 0,-0.0916 0.20548,-0.31459 0.45662,-0.49559 0.25112,-0.18101 0.4566,-0.4655 0.4566,-0.63219 0,-0.68036 4.4734,-4.61887 5.24617,-4.61887 0.1282,0 0.2332,-0.1027 0.2332,-0.22831 0,-0.1256 0.20548,-0.2283 0.45661,-0.2283 0.25114,0 0.45662,-0.1027 0.45662,-0.22831 0,-0.12559 0.25684,-0.22831 0.57077,-0.22831 0.31391,0 0.57077,-0.0908 0.57077,-0.20169 0,-0.11093 0.23114,-0.25789 0.51368,-0.32657 0.28253,-0.0687 0.92464,-0.2321 1.42692,-0.36312 2.41501,-0.63001 4.5223,-0.7445 6.8396,-0.37161 1.2448,0.20031 2.37263,0.44875 2.50627,0.55211 0.13369,0.10338 0.73102,0.328 1.32747,0.49923 0.59645,0.17125 1.08446,0.39164 1.08446,0.4898 0,0.0982 0.1541,0.17847 0.34246,0.17847 0.18835,0 0.34245,0.1027 0.34245,0.2283 0,0.1256 0.15334,0.22831 0.34074,0.22831 0.3041,0 0.98317,0.48389 1.84225,1.31277 0.16268,0.15695 0.36423,0.28538 0.4479,0.28538 0.27065,0 3.75629,3.7577 3.75905,4.05245 0.001,0.15695 0.10544,0.28537 0.23097,0.28537 0.1256,0 0.22831,0.10709 0.22831,0.23786 0,0.1308 0.20547,0.4584 0.45661,0.72797 0.25114,0.26957 0.45662,0.62486 0.45662,0.78953 0,0.16468 0.0862,0.29941 0.19157,0.29941 0.10531,0 0.38789,0.40977 0.62784,0.91061 0.23995,0.50084 0.51332,0.91179 0.6075,0.91323 0.0942,10e-4 0.17123,0.25946 0.17123,0.57338 0,0.31393 0.1027,0.57077 0.22831,0.57077 0.1256,0 0.2283,0.19691 0.2283,0.43759 0,0.24067 0.0771,0.47183 0.17123,0.51369 0.27753,0.1234 1.42691,2.6714 1.42691,3.1633 0,0.24836 0.1027,0.45156 0.22831,0.45156 0.1256,0 0.22832,0.30821 0.22832,0.68492 0,0.37669 0.10269,0.68492 0.22831,0.68492 0.12559,0 0.22829,0.35958 0.22829,0.79907 0,0.43949 0.0915,0.79907 0.20333,0.79907 0.11189,0 0.26024,0.3339 0.32979,0.742 0.0695,0.40809 0.22824,1.20432 0.35265,1.76937 0.12436,0.56507 0.3946,1.79792 0.60045,2.73969 0.61934,2.83345 1.019,7.88912 0.6973,8.82079 -0.14442,0.41827 0.77061,1.42834 6.43657,7.105 3.6327,3.63957 6.67351,6.75914 6.75736,6.93239 0.0838,0.17323 0.34928,0.62317 0.58987,0.99988 0.30872,0.48342 0.44231,1.11926 0.45409,2.16127 0.0163,1.44514 -0.52068,3.43225 -0.92755,3.43225 -0.10846,0 -0.1973,0.15347 -0.1973,0.34104 0,0.18756 -7.16648,7.50765 -15.92552,16.26687 -11.74964,11.7498 -16.13901,16.0006 -16.73968,16.2112 -0.92072,0.3227 -2.38321,0.35 -3.06481,0.057 z m 47.71612,-2.9679 c -0.25114,-0.1079 -0.79051,-0.2036 -1.1986,-0.2124 -0.4081,-0.01 -0.742,-0.1187 -0.742,-0.2443 0,-0.1256 -0.20548,-0.2283 -0.45662,-0.2283 -0.25113,0 -0.45661,-0.1027 -0.45661,-0.2283 0,-0.1256 -0.20548,-0.2283 -0.45662,-0.2283 -0.25113,0 -0.45661,-0.1027 -0.45661,-0.2284 0,-0.1256 -0.11682,-0.2283 -0.25953,-0.2283 -0.29639,0 -3.27587,-2.979 -3.96415,-3.9636 -0.25114,-0.3592 -0.58015,-0.7836 -0.73112,-0.9431 -0.15098,-0.1595 -0.22556,-0.3389 -0.16571,-0.3988 0.0598,-0.06 -0.0478,-0.2387 -0.23918,-0.3976 -0.19138,-0.1588 -0.34798,-0.4816 -0.34798,-0.7174 0,-0.2358 -0.1027,-0.4287 -0.2283,-0.4287 -0.1256,0 -0.22831,-0.2568 -0.22831,-0.5707 0,-0.3139 -0.1027,-0.5708 -0.22831,-0.5708 -0.1256,0 -0.22831,-0.4623 -0.22831,-1.0274 0,-0.5781 -0.10695,-1.0274 -0.24451,-1.0274 -0.16448,0 -0.20456,-0.6538 -0.12244,-1.9976 0.20327,-3.3268 0.39673,-4.8516 0.61554,-4.8516 0.11435,0 0.20803,-0.3595 0.20803,-0.799 0,-0.43953 0.1027,-0.79912 0.22831,-0.79912 0.1256,0 0.2283,-0.3082 0.2283,-0.68491 0,-0.37671 0.1027,-0.68492 0.22831,-0.68492 0.12559,0 0.22831,-0.10325 0.22831,-0.22942 0,-0.12615 0.25684,-0.76184 0.57077,-1.41259 0.31391,-0.65072 0.57076,-1.31802 0.57076,-1.48287 0,-0.16484 0.1027,-0.29972 0.2283,-0.29972 0.1256,0 0.22831,-0.15412 0.22831,-0.34246 0,-0.18836 0.1027,-0.34246 0.22831,-0.34246 0.1256,0 0.22831,-0.19692 0.22831,-0.4376 0,-0.24068 0.0771,-0.47184 0.17123,-0.51369 0.22058,-0.098 1.42692,-1.94927 1.42692,-2.18972 0,-0.1005 0.20546,-0.33091 0.4566,-0.5119 0.25114,-0.18103 0.45662,-0.51192 0.45662,-0.73534 0,-0.22342 0.1027,-0.4062 0.2283,-0.4062 0.1256,0 0.22831,-0.20548 0.22831,-0.45662 0,-0.25113 0.0824,-0.45661 0.18322,-0.45661 0.29965,0 0.96066,-2.09969 0.95944,-3.04764 -6.8e-4,-0.4833 -0.17892,-1.25384 -0.3962,-1.71231 -0.23202,-0.48948 -3.93092,-4.3767 -8.96105,-9.41721 -4.71128,-4.721 -8.58937,-8.69527 -8.61797,-8.83171 -0.0336,-0.16045 0.24859,-0.20433 0.79908,-0.12423 0.91861,0.13369 4.25291,1.13188 4.90044,1.46705 0.21804,0.11285 0.6033,0.20522 0.85614,0.20522 0.25284,0 0.45971,0.1027 0.45971,0.22831 0,0.1256 0.30822,0.2283 0.68492,0.2283 0.37671,0 0.68493,0.1027 0.68493,0.22831 0,0.1256 0.1555,0.22831 0.34555,0.22831 0.31575,0 0.78925,0.19997 1.7092,0.72186 0.18835,0.10681 0.49657,0.25698 0.68493,0.33361 0.18834,0.0766 0.62498,0.25519 0.97029,0.39675 0.34533,0.14157 0.62785,0.33505 0.62785,0.42996 0,0.0949 0.15411,0.17257 0.34246,0.17257 0.18836,0 0.34246,0.1027 0.34246,0.22831 0,0.1256 0.20548,0.22831 0.45662,0.22831 0.25113,0 0.45661,0.0776 0.45661,0.17258 0,0.0949 0.3339,0.32035 0.742,0.50097 0.78486,0.34739 1.00485,0.502 1.88414,1.32414 0.30217,0.28252 0.6091,0.51369 0.68209,0.51369 0.1341,0 0.6167,0.41592 2.05327,1.76937 0.43316,0.40811 0.84703,0.742 0.9197,0.742 0.22976,0 1.25292,1.11017 1.25292,1.35947 0,0.13122 0.1027,0.23867 0.22831,0.23867 0.1256,0 0.22831,0.15412 0.22831,0.34248 0,0.18834 0.1027,0.34246 0.22831,0.34246 0.1256,0 0.22829,0.11641 0.22829,0.25859 0,0.14223 0.18245,0.42477 0.40544,0.62785 0.56875,0.518 1.19272,1.54302 1.19272,1.95935 0,0.19277 0.1027,0.3505 0.2283,0.3505 0.1256,0 0.22831,0.20548 0.22831,0.45662 0,0.25112 0.1027,0.4566 0.22831,0.4566 0.1256,0 0.22831,0.25079 0.22831,0.55729 0,0.30651 0.0909,0.61347 0.20199,0.68214 0.11106,0.0687 0.25587,0.40861 0.32172,0.75546 0.0658,0.34686 0.29779,1.24708 0.51538,2.00048 0.34599,1.19798 0.40838,2.85941 0.49719,13.2418 0.0898,10.50487 0.0555,12.16777 -0.29776,14.44037 -0.21963,1.4127 -0.48541,2.5685 -0.59062,2.5685 -0.10517,0 -0.19129,0.2055 -0.19129,0.4566 0,0.2511 -0.1027,0.4566 -0.22831,0.4566 -0.1256,0 -0.2283,0.2055 -0.2283,0.4566 0,0.2512 -0.1027,0.4566 -0.22831,0.4566 -0.1256,0 -0.22831,0.1102 -0.22831,0.2446 0,0.3638 -0.60103,0.897 -1.01107,0.897 -0.19732,0 -0.35876,0.089 -0.35876,0.1984 0,0.1092 -0.33391,0.2545 -0.742,0.3231 -0.4081,0.068 -0.8961,0.1775 -1.08446,0.2422 -0.18835,0.065 -0.54794,0.029 -0.79908,-0.079 z"
       id="path4175"
       inkscape:connector-curvature="0" />
  </g>
</svg>
