<?xml version="1.0" encoding="UTF-8" standalone="no"?>
<!-- Created with Inkscape (http://www.inkscape.org/) -->

<svg
   xmlns:dc="http://purl.org/dc/elements/1.1/"
   xmlns:cc="http://creativecommons.org/ns#"
   xmlns:rdf="http://www.w3.org/1999/02/22-rdf-syntax-ns#"
   xmlns:svg="http://www.w3.org/2000/svg"
   xmlns="http://www.w3.org/2000/svg"
   xmlns:sodipodi="http://sodipodi.sourceforge.net/DTD/sodipodi-0.dtd"
   xmlns:inkscape="http://www.inkscape.org/namespaces/inkscape"
   width="200"
   height="150"
   id="svg2"
   sodipodi:version="0.32"
   inkscape:version="0.91 r13725"
   version="1.1"
   sodipodi:docname="colorpalette.svg"
   inkscape:export-filename="/home/flo/wanadev/devel/public/PhotonUI/photonui-site/source/doc/widgets/colorpalette.png"
   inkscape:export-xdpi="90"
   inkscape:export-ydpi="90">
  <defs
     id="defs4" />
  <sodipodi:namedview
     id="base"
     pagecolor="#4ec8db"
     bordercolor="#666666"
     borderopacity="1.0"
     inkscape:pageopacity="0"
     inkscape:pageshadow="2"
     inkscape:zoom="1"
     inkscape:cx="159.9816"
     inkscape:cy="-31.659294"
     inkscape:document-units="px"
     inkscape:current-layer="layer1"
     inkscape:window-width="1920"
     inkscape:window-height="1014"
     inkscape:window-x="0"
     inkscape:window-y="27"
     showgrid="false"
     units="px"
     inkscape:window-maximized="1" />
  <metadata
     id="metadata7">
    <rdf:RDF>
      <cc:Work
         rdf:about="">
        <dc:format>image/svg+xml</dc:format>
        <dc:type
           rdf:resource="http://purl.org/dc/dcmitype/StillImage" />
        <dc:title />
      </cc:Work>
    </rdf:RDF>
  </metadata>
  <g
     inkscape:label="Calque 1"
     inkscape:groupmode="layer"
     id="layer1"
     transform="translate(0,-902.36216)">
    <g
       id="g4178"
       transform="translate(0,-4)">
      <rect
         ry="4"
         rx="4"
         y="924.36212"
         x="25"
         height="28"
         width="28"
         id="rect4133"
         style="opacity:1;fill:#ffffff;fill-opacity:1;stroke:#ffffff;stroke-width:3.99999976;stroke-linecap:round;stroke-linejoin:miter;stroke-miterlimit:4;stroke-dasharray:none;stroke-dashoffset:0;stroke-opacity:1" />
      <rect
         style="opacity:0.8;fill:#ffffff;fill-opacity:1;stroke:#ffffff;stroke-width:3.99999976;stroke-linecap:round;stroke-linejoin:miter;stroke-miterlimit:4;stroke-dasharray:none;stroke-dashoffset:0;stroke-opacity:1"
         id="rect4140"
         width="28"
         height="28"
         x="65"
         y="924.36212"
         rx="4"
         ry="4" />
      <rect
         ry="4"
         rx="4"
         y="924.36212"
         x="105"
         height="28"
         width="28"
         id="rect4142"
         style="opacity:0.6;fill:#ffffff;fill-opacity:1;stroke:#ffffff;stroke-width:3.99999976;stroke-linecap:round;stroke-linejoin:miter;stroke-miterlimit:4;stroke-dasharray:none;stroke-dashoffset:0;stroke-opacity:1" />
      <rect
         style="opacity:0.4;fill:#ffffff;fill-opacity:1;stroke:#ffffff;stroke-width:3.99999976;stroke-linecap:round;stroke-linejoin:miter;stroke-miterlimit:4;stroke-dasharray:none;stroke-dashoffset:0;stroke-opacity:1"
         id="rect4144"
         width="28"
         height="28"
         x="145"
         y="924.36212"
         rx="4"
         ry="4" />
    </g>
    <rect
       ry="4"
       rx="4"
       y="960.36212"
       x="25"
       height="28"
       width="28"
       id="rect4162"
       style="opacity:0.8;fill:#ffffff;fill-opacity:1;stroke:#ffffff;stroke-width:3.99999976;stroke-linecap:round;stroke-linejoin:miter;stroke-miterlimit:4;stroke-dasharray:none;stroke-dashoffset:0;stroke-opacity:1" />
    <rect
       style="opacity:0.63999999;fill:#ffffff;fill-opacity:1;stroke:#ffffff;stroke-width:3.99999976;stroke-linecap:round;stroke-linejoin:miter;stroke-miterlimit:4;stroke-dasharray:none;stroke-dashoffset:0;stroke-opacity:1"
       id="rect4164"
       width="28"
       height="28"
       x="65"
       y="960.36212"
       rx="4"
       ry="4" />
    <path
       style="opacity:0.47999998;fill:#ffffff;fill-opacity:1;stroke:#ffffff;stroke-width:3.99999976;stroke-linecap:round;stroke-linejoin:miter;stroke-miterlimit:4;stroke-dasharray:none;stroke-dashoffset:0;stroke-opacity:1"
       d="m 109,960.36216 c -2.216,0 -4,1.784 -4,4 l 0,20 c 0,2.216 1.784,4 4,4 l 6.55859,0 c 3.64194,-8.26799 9.7715,-15.20747 17.44141,-19.84961 l 0,-4.15039 c 0,-2.216 -1.784,-4 -4,-4 l -20,0 z"
       id="rect4166"
       inkscape:connector-curvature="0" />
    <path
       style="opacity:0.32000002;fill:#ffffff;fill-opacity:1;stroke:#ffffff;stroke-width:3.99999976;stroke-linecap:round;stroke-linejoin:miter;stroke-miterlimit:4;stroke-dasharray:none;stroke-dashoffset:0;stroke-opacity:1"
       d="m 149,960.36216 c -1.9203,0 -3.51258,1.34109 -3.9043,3.14063 3.33669,-0.82146 6.81979,-1.26563 10.4043,-1.26563 6.19114,0 12.11626,1.18827 17.5,3.32227 l 0,-1.19727 c 0,-2.216 -1.784,-4 -4,-4 l -20,0 z"
       id="rect4168"
       inkscape:connector-curvature="0" />
    <rect
       style="opacity:0.6;fill:#ffffff;fill-opacity:1;stroke:#ffffff;stroke-width:3.99999976;stroke-linecap:round;stroke-linejoin:miter;stroke-miterlimit:4;stroke-dasharray:none;stroke-dashoffset:0;stroke-opacity:1"
       id="rect4170"
       width="28"
       height="28"
       x="25"
       y="1000.3621"
       rx="4"
       ry="4" />
    <rect
       ry="4"
       rx="4"
       y="1000.3621"
       x="65"
       height="28"
       width="28"
       id="rect4172"
       style="opacity:0.47999998;fill:#ffffff;fill-opacity:1;stroke:#ffffff;stroke-width:3.99999976;stroke-linecap:round;stroke-linejoin:miter;stroke-miterlimit:4;stroke-dasharray:none;stroke-dashoffset:0;stroke-opacity:1" />
    <path
       style="opacity:0.36000001;fill:#ffffff;fill-opacity:1;stroke:#ffffff;stroke-width:3.99999976;stroke-linecap:round;stroke-linejoin:miter;stroke-miterlimit:4;stroke-dasharray:none;stroke-dashoffset:0;stroke-opacity:1"
       d="m 109,1000.3622 c -2.216,0 -4,1.784 -4,4 l 0,20 c 0,2.216 1.784,4 4,4 l 9.15039,0 c -3.98014,-6.5762 -6.27539,-14.2776 -6.27539,-22.5 0,-1.8637 0.13079,-3.6968 0.35938,-5.5 l -3.23438,0 z"
       id="rect4174"
       inkscape:connector-curvature="0" />
    <path
       style="fill:#ffffff"
       d="m 156.5,968.23716 c -21.32958,0 -38.625,17.29538 -38.625,38.62504 0,21.3295 17.29542,38.625 38.625,38.625 3.56208,0 6.4375,-2.8755 6.4375,-6.4375 0,-1.6738 -0.64383,-3.1753 -1.67383,-4.334 -0.98708,-1.1159 -1.63086,-2.6191 -1.63086,-4.25 0,-3.5621 2.87541,-6.4375 6.4375,-6.4375 l 7.59571,0 c 11.845,0 21.45898,-9.6121 21.45898,-21.4571 0,-18.96913 -17.29542,-34.33394 -38.625,-34.33394 z m -10.72852,8.58398 c 3.56209,0 6.4375,2.87542 6.4375,6.4375 0,3.56209 -2.87541,6.4375 -6.4375,6.4375 -3.56208,0 -6.4375,-2.87541 -6.4375,-6.4375 0,-3.56208 2.87542,-6.4375 6.4375,-6.4375 z m 21.45704,0 c 3.56208,0 6.4375,2.87542 6.4375,6.4375 0,3.56209 -2.87542,6.4375 -6.4375,6.4375 -3.56209,0 -6.4375,-2.87541 -6.4375,-6.4375 0,-3.56208 2.87541,-6.4375 6.4375,-6.4375 z m -34.33204,17.16602 c 3.56209,0 6.4375,2.87534 6.4375,6.43754 0,3.562 -2.87541,6.4375 -6.4375,6.4375 -3.56208,0 -6.4375,-2.8755 -6.4375,-6.4375 0,-3.5622 2.87542,-6.43754 6.4375,-6.43754 z m 47.20704,0 c 3.56208,0 6.4375,2.87534 6.4375,6.43754 0,3.562 -2.87542,6.4375 -6.4375,6.4375 -3.56209,0 -6.4375,-2.8755 -6.4375,-6.4375 0,-3.5622 2.87541,-6.43754 6.4375,-6.43754 z"
       id="path4198"
       inkscape:connector-curvature="0" />
  </g>
</svg>
