<?xml version="1.0" encoding="UTF-8" standalone="no"?>
<!-- Created with Inkscape (http://www.inkscape.org/) -->

<svg
   xmlns:dc="http://purl.org/dc/elements/1.1/"
   xmlns:cc="http://creativecommons.org/ns#"
   xmlns:rdf="http://www.w3.org/1999/02/22-rdf-syntax-ns#"
   xmlns:svg="http://www.w3.org/2000/svg"
   xmlns="http://www.w3.org/2000/svg"
   xmlns:sodipodi="http://sodipodi.sourceforge.net/DTD/sodipodi-0.dtd"
   xmlns:inkscape="http://www.inkscape.org/namespaces/inkscape"
   width="200"
   height="150"
   id="svg2"
   sodipodi:version="0.32"
   inkscape:version="0.91 r13725"
   version="1.1"
   sodipodi:docname="dialog.svg"
   inkscape:export-filename="/home/flo/wanadev/devel/public/PhotonUI/photonui-site/source/doc/widgets/dialog.png"
   inkscape:export-xdpi="90"
   inkscape:export-ydpi="90">
  <defs
     id="defs4" />
  <sodipodi:namedview
     id="base"
     pagecolor="#4ec8db"
     bordercolor="#666666"
     borderopacity="1.0"
     inkscape:pageopacity="0"
     inkscape:pageshadow="2"
     inkscape:zoom="1"
     inkscape:cx="14.142857"
     inkscape:cy="-42"
     inkscape:document-units="px"
     inkscape:current-layer="layer1"
     inkscape:window-width="1920"
     inkscape:window-height="1041"
     inkscape:window-x="1920"
     inkscape:window-y="0"
     showgrid="false"
     units="px"
     inkscape:window-maximized="1" />
  <metadata
     id="metadata7">
    <rdf:RDF>
      <cc:Work
         rdf:about="">
        <dc:format>image/svg+xml</dc:format>
        <dc:type
           rdf:resource="http://purl.org/dc/dcmitype/StillImage" />
        <dc:title />
      </cc:Work>
    </rdf:RDF>
  </metadata>
  <g
     inkscape:label="Calque 1"
     inkscape:groupmode="layer"
     id="layer1"
     transform="translate(0,-902.36216)">
    <rect
       style="opacity:1;fill:none;fill-opacity:1;stroke:#ffffff;stroke-width:4;stroke-linecap:round;stroke-linejoin:miter;stroke-miterlimit:4;stroke-dasharray:none;stroke-dashoffset:0;stroke-opacity:1"
       id="rect4133"
       width="191"
       height="136"
       x="5"
       y="909.36206"
       rx="4"
       ry="4" />
    <path
       style="opacity:1;fill:#ffffff;fill-opacity:1;stroke:none;stroke-width:4;stroke-linecap:round;stroke-linejoin:miter;stroke-miterlimit:4;stroke-dasharray:none;stroke-dashoffset:0;stroke-opacity:1"
       d="M 5 6 L 5 41 L 6 41 L 6 42 L 195 42 L 195 7 L 145 7 L 145 6 L 5 6 z M 47.382812 13.609375 L 49.515625 13.609375 L 49.515625 31.84375 L 47.382812 31.84375 L 47.382812 13.609375 z M 29.476562 14.160156 C 29.648438 14.160156 29.808594 14.18752 29.957031 14.242188 C 30.113281 14.289053 30.246093 14.367177 30.355469 14.476562 C 30.472656 14.585937 30.5625 14.726563 30.625 14.898438 C 30.695313 15.062496 30.730469 15.261714 30.730469 15.496094 C 30.730469 15.949214 30.605469 16.289058 30.355469 16.515625 C 30.113281 16.734372 29.820313 16.84375 29.476562 16.84375 C 29.125001 16.84375 28.828125 16.734372 28.585938 16.515625 C 28.351562 16.296872 28.234375 15.957027 28.234375 15.496094 C 28.234375 15.02734 28.351562 14.687496 28.585938 14.476562 C 28.828126 14.265622 29.125 14.160156 29.476562 14.160156 z M 12.285156 14.710938 L 17.054688 14.710938 C 18.25 14.710938 19.332031 14.890627 20.300781 15.25 C 21.269531 15.60938 22.09375 16.144535 22.773438 16.855469 C 23.453125 17.558595 23.976563 18.433595 24.34375 19.480469 C 24.71875 20.527342 24.90625 21.738281 24.90625 23.113281 C 24.90625 24.558595 24.71875 25.828122 24.34375 26.921875 C 23.96875 28.007808 23.425781 28.917964 22.714844 29.652344 C 22.003906 30.378904 21.128906 30.925782 20.089844 31.292969 C 19.058594 31.660155 17.886719 31.84375 16.574219 31.84375 L 12.285156 31.84375 L 12.285156 14.710938 z M 14.464844 16.574219 L 14.464844 29.96875 L 16.363281 29.96875 C 18.425781 29.96875 19.980468 29.398432 21.027344 28.257812 C 22.074218 27.117187 22.597656 25.42578 22.597656 23.183594 C 22.597656 22.042967 22.46875 21.058595 22.210938 20.230469 C 21.953126 19.394535 21.578125 18.707035 21.085938 18.167969 C 20.59375 17.628909 19.988281 17.23047 19.269531 16.972656 C 18.550781 16.70703 17.734375 16.574219 16.820312 16.574219 L 14.464844 16.574219 z M 175.11914 17.527344 L 180.60938 23.017578 L 186.09766 17.527344 L 187.52148 18.974609 L 182.05664 24.464844 L 187.52148 29.931641 L 186.09766 31.378906 L 180.60938 25.888672 L 175.11914 31.378906 L 173.70703 29.931641 L 179.16211 24.464844 L 173.70703 18.974609 L 175.11914 17.527344 z M 38.78125 18.742188 C 39.578125 18.742188 40.265625 18.824221 40.84375 18.988281 C 41.429687 19.144535 41.910156 19.39844 42.285156 19.75 C 42.667969 20.093753 42.953125 20.535159 43.140625 21.074219 C 43.328125 21.613285 43.421875 22.26563 43.421875 23.03125 L 43.421875 31.84375 L 41.886719 31.84375 L 41.453125 30.0625 L 41.359375 30.0625 C 41.101562 30.414067 40.84375 30.718749 40.585938 30.976562 C 40.328125 31.226562 40.046875 31.433596 39.742188 31.597656 C 39.4375 31.761716 39.097656 31.882811 38.722656 31.960938 C 38.347656 32.039064 37.914062 32.078125 37.421875 32.078125 C 36.882812 32.078125 36.386718 32.000003 35.933594 31.84375 C 35.480468 31.695317 35.085937 31.464844 34.75 31.152344 C 34.421875 30.83203 34.164062 30.433598 33.976562 29.957031 C 33.789062 29.472658 33.695312 28.90234 33.695312 28.246094 C 33.695312 26.96484 34.144531 25.980469 35.042969 25.292969 C 35.949219 24.605469 37.324219 24.230469 39.167969 24.167969 L 41.324219 24.085938 L 41.324219 23.277344 C 41.324219 22.753904 41.265625 22.316404 41.148438 21.964844 C 41.039062 21.613277 40.875 21.332027 40.65625 21.121094 C 40.445313 20.90234 40.179688 20.74609 39.859375 20.652344 C 39.546875 20.55859 39.1875 20.511719 38.78125 20.511719 C 38.132813 20.511719 37.527344 20.605469 36.964844 20.792969 C 36.410156 20.980469 35.875 21.20703 35.359375 21.472656 L 34.609375 19.867188 C 35.1875 19.554688 35.832031 19.28906 36.542969 19.070312 C 37.253906 18.85156 38 18.742188 38.78125 18.742188 z M 58.539062 18.742188 C 59.34375 18.742188 60.085938 18.890627 60.765625 19.1875 C 61.445312 19.476567 62.03125 19.906249 62.523438 20.476562 C 63.023438 21.039062 63.410156 21.73438 63.683594 22.5625 C 63.964844 23.382813 64.105469 24.324219 64.105469 25.386719 C 64.105469 26.457032 63.972657 27.410154 63.707031 28.246094 C 63.449219 29.074214 63.074219 29.773437 62.582031 30.34375 C 62.097657 30.90625 61.507813 31.335932 60.8125 31.632812 C 60.117187 31.929686 59.335937 32.078125 58.46875 32.078125 C 57.664063 32.078125 56.921875 31.929686 56.242188 31.632812 C 55.5625 31.335932 54.972656 30.90625 54.472656 30.34375 C 53.980469 29.773437 53.59375 29.074214 53.3125 28.246094 C 53.039063 27.410154 52.902344 26.457032 52.902344 25.386719 C 52.902344 24.324219 53.03125 23.382813 53.289062 22.5625 C 53.554688 21.73438 53.929688 21.039062 54.414062 20.476562 C 54.898438 19.906249 55.488281 19.476567 56.183594 19.1875 C 56.886718 18.890627 57.671875 18.742188 58.539062 18.742188 z M 71.476562 18.742188 C 71.765625 18.742188 72.0625 18.765633 72.367188 18.8125 C 72.679688 18.851567 72.941406 18.906249 73.152344 18.976562 L 77.40625 18.976562 L 77.40625 20.300781 L 75.097656 20.617188 C 75.316406 20.890627 75.5 21.242188 75.648438 21.671875 C 75.796875 22.093748 75.871094 22.574221 75.871094 23.113281 C 75.871094 23.707035 75.777344 24.257812 75.589844 24.765625 C 75.410156 25.265625 75.132813 25.69922 74.757812 26.066406 C 74.390625 26.433593 73.933593 26.722654 73.386719 26.933594 C 72.839843 27.136714 72.203125 27.238281 71.476562 27.238281 L 70.960938 27.238281 C 70.789062 27.230481 70.648438 27.214873 70.539062 27.191406 C 70.40625 27.269533 70.273438 27.359378 70.140625 27.460938 C 70.015625 27.55469 69.898438 27.664062 69.789062 27.789062 C 69.6875 27.914062 69.601563 28.05469 69.53125 28.210938 C 69.46875 28.36719 69.4375 28.539062 69.4375 28.726562 C 69.4375 28.937496 69.484375 29.109374 69.578125 29.242188 C 69.671875 29.367187 69.796875 29.464843 69.953125 29.535156 C 70.117188 29.60547 70.308594 29.652348 70.527344 29.675781 C 70.746094 29.699248 70.976563 29.710937 71.21875 29.710938 L 73.28125 29.710938 C 74.007813 29.710938 74.621094 29.804688 75.121094 29.992188 C 75.621094 30.171874 76.027344 30.417969 76.339844 30.730469 C 76.660156 31.042969 76.890625 31.414063 77.03125 31.84375 C 77.171875 32.26563 77.242188 32.714846 77.242188 33.191406 C 77.242188 33.878906 77.113281 34.496095 76.855469 35.042969 C 76.605469 35.589842 76.21875 36.050781 75.695312 36.425781 C 75.171875 36.808595 74.507812 37.10156 73.703125 37.304688 C 72.90625 37.507814 71.964844 37.609375 70.878906 37.609375 C 70.042969 37.609375 69.3125 37.527348 68.6875 37.363281 C 68.0625 37.199221 67.542969 36.960937 67.128906 36.648438 C 66.714844 36.335938 66.402344 35.957032 66.191406 35.511719 C 65.988282 35.074219 65.886719 34.578124 65.886719 34.023438 C 65.886719 33.55469 65.960938 33.14063 66.109375 32.78125 C 66.265625 32.42969 66.472656 32.125 66.730469 31.867188 C 66.988281 31.609374 67.285156 31.398435 67.621094 31.234375 C 67.964844 31.070308 68.320313 30.945308 68.6875 30.859375 C 68.359375 30.710935 68.089844 30.476563 67.878906 30.15625 C 67.667969 29.835937 67.5625 29.468747 67.5625 29.054688 C 67.5625 28.578127 67.6875 28.167972 67.9375 27.824219 C 68.1875 27.472659 68.582031 27.132814 69.121094 26.804688 C 68.785156 26.664061 68.476562 26.472655 68.195312 26.230469 C 67.921875 25.980469 67.6875 25.699219 67.492188 25.386719 C 67.304688 25.066405 67.15625 24.71875 67.046875 24.34375 C 66.945312 23.96875 66.894531 23.582027 66.894531 23.183594 C 66.894531 22.48828 66.992187 21.867186 67.1875 21.320312 C 67.382813 20.773432 67.671875 20.308595 68.054688 19.925781 C 68.4375 19.542975 68.914062 19.250002 69.484375 19.046875 C 70.054688 18.843748 70.71875 18.742188 71.476562 18.742188 z M 28.398438 18.976562 L 30.53125 18.976562 L 30.53125 31.84375 L 28.398438 31.84375 L 28.398438 18.976562 z M 71.382812 20.277344 C 70.609375 20.277344 70.015625 20.511722 69.601562 20.980469 C 69.1875 21.449222 68.980469 22.160161 68.980469 23.113281 C 68.980469 24.011721 69.191407 24.679688 69.613281 25.117188 C 70.035157 25.554688 70.632813 25.773438 71.40625 25.773438 C 72.1875 25.773437 72.777344 25.558593 73.175781 25.128906 C 73.582031 24.691406 73.785156 24.007812 73.785156 23.078125 C 73.785156 22.117185 73.578125 21.410158 73.164062 20.957031 C 72.757812 20.503911 72.164062 20.277344 71.382812 20.277344 z M 58.492188 20.511719 C 57.289062 20.511719 56.421875 20.917969 55.890625 21.730469 C 55.367188 22.535155 55.105469 23.753905 55.105469 25.386719 C 55.105469 27.019532 55.371094 28.249998 55.902344 29.078125 C 56.441406 29.898438 57.3125 30.308594 58.515625 30.308594 C 59.71875 30.308594 60.582031 29.898438 61.105469 29.078125 C 61.636719 28.249998 61.902344 27.019532 61.902344 25.386719 C 61.902344 23.753905 61.632813 22.535155 61.09375 21.730469 C 60.5625 20.917969 59.695312 20.511719 58.492188 20.511719 z M 41.300781 25.550781 L 39.625 25.632812 C 38.921875 25.66408 38.332031 25.742208 37.855469 25.867188 C 37.378906 25.992188 36.996094 26.167971 36.707031 26.394531 C 36.425781 26.613285 36.222656 26.882812 36.097656 27.203125 C 35.972656 27.515625 35.910156 27.871098 35.910156 28.269531 C 35.910156 28.988285 36.097656 29.515622 36.472656 29.851562 C 36.855469 30.187496 37.355469 30.355469 37.972656 30.355469 C 38.449219 30.355469 38.890625 30.281246 39.296875 30.132812 C 39.703125 29.984372 40.054688 29.761717 40.351562 29.464844 C 40.648438 29.160157 40.878906 28.781252 41.042969 28.328125 C 41.214843 27.867185 41.300781 27.328124 41.300781 26.710938 L 41.300781 25.550781 z M 70.421875 31.632812 C 70.148438 31.632812 69.863282 31.664096 69.566406 31.726562 C 69.269532 31.78903 68.996094 31.906218 68.746094 32.078125 C 68.503906 32.249998 68.300781 32.484377 68.136719 32.78125 C 67.980469 33.085937 67.902344 33.476558 67.902344 33.953125 C 67.902344 34.242185 67.953125 34.511719 68.054688 34.761719 C 68.15625 35.011719 68.320312 35.226563 68.546875 35.40625 C 68.78125 35.585937 69.085938 35.726558 69.460938 35.828125 C 69.84375 35.937498 70.316406 35.992188 70.878906 35.992188 C 72.332032 35.992188 73.417969 35.765627 74.136719 35.3125 C 74.863281 34.867187 75.226562 34.222653 75.226562 33.378906 C 75.226562 33.019533 75.179688 32.726567 75.085938 32.5 C 74.992188 32.27344 74.835938 32.09375 74.617188 31.960938 C 74.40625 31.835937 74.125 31.749998 73.773438 31.703125 C 73.421875 31.656258 72.992188 31.632812 72.484375 31.632812 L 70.421875 31.632812 z "
       transform="translate(0,902.36216)"
       id="rect4171" />
    <g
       id="layer1-8"
       inkscape:label="Calque 1"
       transform="matrix(0.59080949,0,0,0.5863413,90.334816,447.70413)">
      <g
         transform="translate(-1,-3.1308594e-5)"
         id="g4142">
        <rect
           style="opacity:1;fill:none;fill-opacity:1;stroke:#ffffff;stroke-width:6.79611969;stroke-linecap:round;stroke-linejoin:miter;stroke-miterlimit:4;stroke-dasharray:none;stroke-dashoffset:0;stroke-opacity:1"
           id="rect4133-9"
           width="128"
           height="54"
           x="36"
           y="949.36218"
           rx="6.7703719"
           ry="6.8219652" />
        <path
           style="color:#000000;font-style:normal;font-variant:normal;font-weight:normal;font-stretch:normal;font-size:medium;line-height:normal;font-family:sans-serif;text-indent:0;text-align:start;text-decoration:none;text-decoration-line:none;text-decoration-style:solid;text-decoration-color:#000000;letter-spacing:normal;word-spacing:normal;text-transform:none;direction:ltr;block-progression:tb;writing-mode:lr-tb;baseline-shift:baseline;text-anchor:start;white-space:normal;clip-rule:nonzero;display:inline;overflow:visible;visibility:visible;opacity:1;isolation:auto;mix-blend-mode:normal;color-interpolation:sRGB;color-interpolation-filters:linearRGB;solid-color:#000000;solid-opacity:1;fill:#ffffff;fill-opacity:1;fill-rule:nonzero;stroke:none;stroke-width:4;stroke-linecap:round;stroke-linejoin:miter;stroke-miterlimit:4;stroke-dasharray:none;stroke-dashoffset:0;stroke-opacity:1;color-rendering:auto;image-rendering:auto;shape-rendering:auto;text-rendering:auto;enable-background:accumulate"
           d="m 164,949.71568 0,5.64648 0,44.00004 0,2 c 0,1.1426 -0.85741,2 -2,2 l -2,0 -118,0 -5.644531,0 c 0.833204,2.3175 3.056509,4 5.644531,4 l 120,0 c 3.28941,0 6,-2.7106 6,-6 l 0,-46.00004 c 0,-2.5889 -1.68121,-4.81394 -4,-5.64648 z"
           id="rect4135"
           inkscape:connector-curvature="0" />
      </g>
      <text
         sodipodi:linespacing="125%"
         id="text4146"
         y="986.18994"
         x="81.915482"
         style="font-style:normal;font-weight:normal;font-size:27.49634361px;line-height:125%;font-family:Sans;letter-spacing:0px;word-spacing:0px;fill:#ffffff;fill-opacity:1;stroke:none;stroke-width:1px;stroke-linecap:butt;stroke-linejoin:miter;stroke-opacity:1"
         xml:space="preserve"><tspan
           y="986.18994"
           x="81.915482"
           id="tspan4148"
           sodipodi:role="line">ok</tspan></text>
    </g>
    <g
       style="font-style:normal;font-weight:normal;font-size:24px;line-height:1000%;font-family:Sans;text-align:center;letter-spacing:0px;word-spacing:0px;text-anchor:middle;fill:#000000;fill-opacity:1;stroke:none;stroke-width:1px;stroke-linecap:butt;stroke-linejoin:miter;stroke-opacity:1"
       id="text4151" />
  </g>
</svg>
