<?xml version="1.0" encoding="UTF-8" standalone="no"?>
<!-- Created with Inkscape (http://www.inkscape.org/) -->

<svg
   xmlns:dc="http://purl.org/dc/elements/1.1/"
   xmlns:cc="http://creativecommons.org/ns#"
   xmlns:rdf="http://www.w3.org/1999/02/22-rdf-syntax-ns#"
   xmlns:svg="http://www.w3.org/2000/svg"
   xmlns="http://www.w3.org/2000/svg"
   xmlns:sodipodi="http://sodipodi.sourceforge.net/DTD/sodipodi-0.dtd"
   xmlns:inkscape="http://www.inkscape.org/namespaces/inkscape"
   width="200"
   height="150"
   id="svg2"
   sodipodi:version="0.32"
   inkscape:version="0.91 r13725"
   version="1.1"
   sodipodi:docname="filemanager.svg"
   inkscape:export-filename="/home/flo/wanadev/devel/public/PhotonUI/photonui-site/source/doc/widgets/filemanager.png"
   inkscape:export-xdpi="90"
   inkscape:export-ydpi="90">
  <defs
     id="defs4" />
  <sodipodi:namedview
     id="base"
     pagecolor="#4ec8db"
     bordercolor="#666666"
     borderopacity="1.0"
     inkscape:pageopacity="0"
     inkscape:pageshadow="2"
     inkscape:zoom="1"
     inkscape:cx="49.376345"
     inkscape:cy="27.639556"
     inkscape:document-units="px"
     inkscape:current-layer="layer1"
     inkscape:window-width="1920"
     inkscape:window-height="1014"
     inkscape:window-x="0"
     inkscape:window-y="27"
     showgrid="false"
     units="px"
     inkscape:window-maximized="1" />
  <metadata
     id="metadata7">
    <rdf:RDF>
      <cc:Work
         rdf:about="">
        <dc:format>image/svg+xml</dc:format>
        <dc:type
           rdf:resource="http://purl.org/dc/dcmitype/StillImage" />
        <dc:title />
      </cc:Work>
    </rdf:RDF>
  </metadata>
  <g
     inkscape:label="Calque 1"
     inkscape:groupmode="layer"
     id="layer1"
     transform="translate(0,-902.36216)">
    <path
       style="color:#000000;font-style:normal;font-variant:normal;font-weight:normal;font-stretch:normal;font-size:medium;line-height:normal;font-family:sans-serif;text-indent:0;text-align:start;text-decoration:none;text-decoration-line:none;text-decoration-style:solid;text-decoration-color:#000000;letter-spacing:normal;word-spacing:normal;text-transform:none;direction:ltr;block-progression:tb;writing-mode:lr-tb;baseline-shift:baseline;text-anchor:start;white-space:normal;clip-rule:nonzero;display:inline;overflow:visible;visibility:visible;opacity:1;isolation:auto;mix-blend-mode:normal;color-interpolation:sRGB;color-interpolation-filters:linearRGB;solid-color:#000000;solid-opacity:1;fill:#ffffff;fill-opacity:1;fill-rule:nonzero;stroke:none;stroke-width:4;stroke-linecap:round;stroke-linejoin:miter;stroke-miterlimit:4;stroke-dasharray:none;stroke-dashoffset:0;stroke-opacity:1;color-rendering:auto;image-rendering:auto;shape-rendering:auto;text-rendering:auto;enable-background:accumulate"
       d="m 103.71484,936.36214 -1.71484,0 -28,0 c -3.289406,0 -6,2.71059 -6,6 l 0,70.00006 c 0,3.2894 2.710594,6 6,6 l 52,0 c 3.28941,0 6,-2.7106 6,-6 l 0,-47.7149 c 0,0 0,-0.15104 0,-0.22657 0,0 -0.0391,-0.0391 -0.0586,-0.0586 L 104,936.42073 c 0,0 -0.0391,-0.0391 -0.0586,-0.0586 z m -29.71484,4 26,0 0,22 c 0,0.82023 0.16417,1.61539 0.46875,2.33789 0.30577,0.7253 0.74941,1.36856 1.28711,1.90625 0.53769,0.53769 1.18093,0.98134 1.90625,1.28711 0.72247,0.30456 1.51764,0.46875 2.33789,0.46875 l 22,0 0,44.00006 c 0,1.1426 -0.85741,2 -2,2 l -52,0 c -1.142594,0 -2,-0.8574 -2,-2 l 0,-70.00006 c 0,-1.14259 0.857406,-2 2,-2 z m 30,1.71484 22.28516,22.28516 -20.28516,0 c -0.28775,0 -0.54792,-0.0571 -0.7832,-0.15625 -0.23242,-0.098 -0.44751,-0.24243 -0.63282,-0.42773 -0.1853,-0.18531 -0.32974,-0.40037 -0.42773,-0.63282 C 104.05707,962.91009 104,962.64991 104,962.36214 Z"
       id="path4151"
       inkscape:connector-curvature="0"
       sodipodi:nodetypes="ccssssssccccccscssssscssssssccscccsc" />
  </g>
</svg>
