<?xml version="1.0" encoding="UTF-8" standalone="no"?>
<!-- Created with Inkscape (http://www.inkscape.org/) -->

<svg
   xmlns:dc="http://purl.org/dc/elements/1.1/"
   xmlns:cc="http://creativecommons.org/ns#"
   xmlns:rdf="http://www.w3.org/1999/02/22-rdf-syntax-ns#"
   xmlns:svg="http://www.w3.org/2000/svg"
   xmlns="http://www.w3.org/2000/svg"
   xmlns:sodipodi="http://sodipodi.sourceforge.net/DTD/sodipodi-0.dtd"
   xmlns:inkscape="http://www.inkscape.org/namespaces/inkscape"
   width="200"
   height="150"
   id="svg2"
   sodipodi:version="0.32"
   inkscape:version="0.91 r13725"
   version="1.1"
   sodipodi:docname="popupmenu.svg"
   inkscape:export-filename="/home/flo/wanadev/devel/public/PhotonUI/photonui-site/source/doc/widgets/popupmenu.png"
   inkscape:export-xdpi="90"
   inkscape:export-ydpi="90">
  <defs
     id="defs4">
    <inkscape:perspective
       id="perspective2986"
       inkscape:persp3d-origin="0.5 : 0.33333333 : 1"
       inkscape:vp_z="1 : 0.5 : 1"
       inkscape:vp_y="0 : 1000 : 0"
       inkscape:vp_x="0 : 0.5 : 1"
       sodipodi:type="inkscape:persp3d" />
    <inkscape:perspective
       id="perspective2884"
       inkscape:persp3d-origin="0.5 : 0.33333333 : 1"
       inkscape:vp_z="1 : 0.5 : 1"
       inkscape:vp_y="0 : 1000 : 0"
       inkscape:vp_x="0 : 0.5 : 1"
       sodipodi:type="inkscape:persp3d" />
    <inkscape:perspective
       sodipodi:type="inkscape:persp3d"
       inkscape:vp_x="0 : 526.18109 : 1"
       inkscape:vp_y="0 : 1000 : 0"
       inkscape:vp_z="744.09448 : 526.18109 : 1"
       inkscape:persp3d-origin="372.04724 : 350.78739 : 1"
       id="perspective10" />
  </defs>
  <sodipodi:namedview
     id="base"
     pagecolor="#4ec8db"
     bordercolor="#666666"
     borderopacity="1.0"
     inkscape:pageopacity="0"
     inkscape:pageshadow="2"
     inkscape:zoom="1"
     inkscape:cx="179.14286"
     inkscape:cy="169.43022"
     inkscape:document-units="px"
     inkscape:current-layer="layer1"
     inkscape:window-width="1920"
     inkscape:window-height="1014"
     inkscape:window-x="1920"
     inkscape:window-y="27"
     showgrid="false"
     units="px"
     inkscape:window-maximized="1"
     showguides="false" />
  <metadata
     id="metadata7">
    <rdf:RDF>
      <cc:Work
         rdf:about="">
        <dc:format>image/svg+xml</dc:format>
        <dc:type
           rdf:resource="http://purl.org/dc/dcmitype/StillImage" />
        <dc:title />
      </cc:Work>
    </rdf:RDF>
  </metadata>
  <g
     inkscape:label="Calque 1"
     inkscape:groupmode="layer"
     id="layer1"
     transform="translate(0,-902.36216)">
    <path
       style="color:#000000;font-style:normal;font-variant:normal;font-weight:normal;font-stretch:normal;font-size:medium;line-height:normal;font-family:sans-serif;text-indent:0;text-align:start;text-decoration:none;text-decoration-line:none;text-decoration-style:solid;text-decoration-color:#000000;letter-spacing:normal;word-spacing:normal;text-transform:none;direction:ltr;block-progression:tb;writing-mode:lr-tb;baseline-shift:baseline;text-anchor:start;white-space:normal;clip-rule:nonzero;display:inline;overflow:visible;visibility:visible;opacity:1;isolation:auto;mix-blend-mode:normal;color-interpolation:sRGB;color-interpolation-filters:linearRGB;solid-color:#000000;solid-opacity:1;fill:#ffffff;fill-opacity:1;fill-rule:nonzero;stroke:none;stroke-width:4;stroke-linecap:round;stroke-linejoin:miter;stroke-miterlimit:4;stroke-dasharray:none;stroke-dashoffset:0;stroke-opacity:1;color-rendering:auto;image-rendering:auto;shape-rendering:auto;text-rendering:auto;enable-background:accumulate"
       d="m 39,911.36216 c -3.289406,0 -6,2.71059 -6,6 l 0,121.00004 c 0,3.2894 2.710594,6 6,6 l 120,0 c 3.28941,0 6,-2.7106 6,-6 l 0,-17.3946 c -0.36574,-0.3428 -0.70223,-0.7186 -0.99805,-1.1347 -0.28159,-0.3582 -0.34629,-0.4914 -0.4414,-0.6446 -0.12539,-0.2019 -0.23932,-0.3982 -0.36914,-0.6211 -0.25965,-0.4457 -0.56785,-0.9886 -0.91993,-1.6191 -0.36759,-0.6583 -0.8303,-1.5071 -1.27148,-2.3125 l 0,23.7266 c 0,1.1426 -0.85741,2 -2,2 l -120,0 c -1.142594,0 -2,-0.8574 -2,-2 l 0,-121.00004 c 0,-1.1426 0.857406,-2 2,-2 l 120,0 c 1.14259,0 2,0.8574 2,2 l 0,52.34766 4,3.95507 0,-56.30273 c 0,-3.28941 -2.71059,-6 -6,-6 l -120,0 z"
       id="path4844" />
    <g
       style="font-style:normal;font-weight:normal;font-size:18.07715797px;line-height:125%;font-family:Sans;letter-spacing:0px;word-spacing:0px;fill:#ffffff;fill-opacity:1;stroke:none;stroke-width:1px;stroke-linecap:butt;stroke-linejoin:miter;stroke-opacity:1"
       id="text4146">
      <path
         d="m 47.452935,926.14498 1.783001,0 0,13.17832 -1.783001,0 0,-13.17832 z"
         style=""
         id="path4485" />
      <path
         d="m 54.320136,926.63045 0,2.80691 3.345334,0 0,1.26222 -3.345334,0 0,5.36666 q 0,1.20926 0.32659,1.5535 0.335416,0.34425 1.35049,0.34425 l 1.668254,0 0,1.35931 -1.668254,0 q -1.880095,0 -2.59506,-0.69731 -0.714966,-0.70614 -0.714966,-2.55975 l 0,-5.36666 -1.19161,0 0,-1.26222 1.19161,0 0,-2.80691 1.632946,0 z"
         style=""
         id="path4487" />
      <path
         d="m 68.266381,933.9743 0,0.79441 -7.467419,0 q 0.10592,1.67708 1.006248,2.55975 0.909154,0.87385 2.524447,0.87385 0.935634,0 1.809481,-0.2295 0.882673,-0.22949 1.747694,-0.68848 l 0,1.53585 q -0.873847,0.37072 -1.791828,0.56491 -0.917981,0.19419 -1.862442,0.19419 -2.365565,0 -3.751363,-1.37697 -1.376971,-1.37697 -1.376971,-3.72489 0,-2.42735 1.306357,-3.84845 1.315184,-1.42993 3.539522,-1.42993 1.994842,0 3.151145,1.2887 1.165129,1.27988 1.165129,3.48656 z m -1.624119,-0.47664 q -0.01765,-1.33284 -0.750273,-2.12725 -0.723792,-0.7944 -1.924229,-0.7944 -1.359317,0 -2.180204,0.76792 -0.81206,0.76793 -0.935634,2.16255 l 5.79034,-0.009 z"
         style=""
         id="path4489" />
      <path
         d="m 78.628972,931.33511 q 0.609045,-1.09452 1.456411,-1.6153 0.847367,-0.52077 1.994843,-0.52077 1.544679,0 2.383219,1.08568 0.83854,1.07687 0.83854,3.07171 l 0,5.96687 -1.632946,0 0,-5.91391 q 0,-1.42111 -0.503124,-2.10959 -0.503124,-0.68849 -1.535853,-0.68849 -1.262223,0 -1.994842,0.83854 -0.732619,0.83854 -0.732619,2.28613 l 0,5.58732 -1.632947,0 0,-5.91391 q 0,-1.42993 -0.503124,-2.10959 -0.503124,-0.68849 -1.553506,-0.68849 -1.24457,0 -1.977189,0.84737 -0.732619,0.83854 -0.732619,2.2773 l 0,5.58732 -1.632946,0 0,-9.88594 1.632946,0 0,1.53585 q 0.556085,-0.90915 1.332837,-1.34166 0.776753,-0.43251 1.844789,-0.43251 1.076861,0 1.827134,0.54725 0.7591,0.54726 1.120996,1.58882 z"
         style=""
         id="path4491" />
      <path
         d="m 94.843687,937.82276 2.912824,0 0,-10.05366 -3.168799,0.63553 0,-1.62412 3.151145,-0.63553 1.783001,0 0,11.67778 2.912822,0 0,1.50054 -7.590993,0 0,-1.50054 z"
         style=""
         id="path4493" />
    </g>
    <path
       style="opacity:1;fill:#ffffff;fill-opacity:1;stroke:none;stroke-width:2;stroke-linecap:round;stroke-linejoin:round;stroke-miterlimit:4;stroke-dasharray:none;stroke-dashoffset:0;stroke-opacity:1"
       d="M 36 44 L 36 76 L 146 76 L 146 52.515625 L 162 68.335938 L 162 44 L 36 44 z M 97.738281 53.544922 C 99.103483 53.544922 100.19185 53.885759 101.00391 54.568359 C 101.81597 55.250966 102.22266 56.1631 102.22266 57.304688 C 102.22266 57.846061 102.12002 58.361196 101.91406 58.849609 C 101.71399 59.332136 101.34603 59.903433 100.81055 60.5625 C 100.66343 60.733147 100.19477 61.226975 99.40625 62.044922 C 98.617729 62.856982 97.50613 63.995697 96.070312 65.460938 L 102.29297 65.460938 L 102.29297 66.960938 L 93.925781 66.960938 L 93.925781 65.460938 C 94.602497 64.760683 95.522371 63.821431 96.6875 62.644531 C 97.858514 61.461745 98.594422 60.700675 98.894531 60.359375 C 99.465327 59.717968 99.862321 59.175715 100.08594 58.734375 C 100.31543 58.287155 100.43164 57.849489 100.43164 57.419922 C 100.43164 56.719669 100.18375 56.148371 99.689453 55.707031 C 99.20104 55.265698 98.561959 55.044922 97.773438 55.044922 C 97.21441 55.044922 96.623756 55.141751 96 55.335938 C 95.382128 55.530124 94.719811 55.82449 94.013672 56.21875 L 94.013672 54.417969 C 94.73158 54.129629 95.403588 53.912738 96.027344 53.765625 C 96.6511 53.618512 97.220446 53.544922 97.738281 53.544922 z M 47.453125 53.783203 L 49.236328 53.783203 L 49.236328 66.960938 L 47.453125 66.960938 L 47.453125 53.783203 z M 52.6875 54.267578 L 54.320312 54.267578 L 54.320312 57.076172 L 57.666016 57.076172 L 57.666016 58.337891 L 54.320312 58.337891 L 54.320312 63.703125 C 54.320313 64.509298 54.428758 65.028319 54.646484 65.257812 C 54.870095 65.487313 55.321331 65.601562 55.998047 65.601562 L 57.666016 65.601562 L 57.666016 66.960938 L 55.998047 66.960938 C 54.74465 66.960938 53.878987 66.728545 53.402344 66.263672 C 52.9257 65.792912 52.6875 64.938865 52.6875 63.703125 L 52.6875 58.337891 L 51.496094 58.337891 L 51.496094 57.076172 L 52.6875 57.076172 L 52.6875 54.267578 z M 63.949219 56.835938 C 65.279113 56.835938 66.330694 57.265867 67.101562 58.125 C 67.878315 58.978253 68.265625 60.140208 68.265625 61.611328 L 68.265625 62.40625 L 60.798828 62.40625 C 60.869441 63.524303 61.204468 64.37835 61.804688 64.966797 C 62.410789 65.549364 63.253216 65.839844 64.330078 65.839844 C 64.953834 65.839844 65.556107 65.764328 66.138672 65.611328 C 66.727121 65.458335 67.310038 65.227868 67.886719 64.921875 L 67.886719 66.458984 C 67.304154 66.706131 66.70769 66.893977 66.095703 67.023438 C 65.483716 67.152897 64.862063 67.216797 64.232422 67.216797 C 62.655379 67.216797 61.404334 66.757824 60.480469 65.839844 C 59.562488 64.921864 59.103516 63.680514 59.103516 62.115234 C 59.103516 60.497001 59.539252 59.214978 60.410156 58.267578 C 61.286946 57.314291 62.466327 56.835937 63.949219 56.835938 z M 75.681641 56.835938 C 76.399548 56.835937 77.007632 57.019932 77.507812 57.384766 C 78.01388 57.749606 78.387642 58.278283 78.628906 58.972656 C 79.034936 58.242976 79.521027 57.704609 80.085938 57.357422 C 80.650847 57.010242 81.315094 56.835938 82.080078 56.835938 C 83.109864 56.835938 83.903864 57.198088 84.462891 57.921875 C 85.021917 58.639788 85.302734 59.664247 85.302734 60.994141 L 85.302734 66.960938 L 83.669922 66.960938 L 83.669922 61.046875 C 83.669922 60.099468 83.501432 59.396487 83.166016 58.9375 C 82.8306 58.478507 82.319345 58.25 81.630859 58.25 C 80.789377 58.25 80.123178 58.528864 79.634766 59.087891 C 79.146353 59.646917 78.902344 60.407987 78.902344 61.373047 L 78.902344 66.960938 L 77.269531 66.960938 L 77.269531 61.046875 C 77.269531 60.093588 77.101041 59.390607 76.765625 58.9375 C 76.430209 58.478507 75.913145 58.25 75.212891 58.25 C 74.383177 58.25 73.724741 58.53079 73.236328 59.095703 C 72.747915 59.65473 72.503906 60.413874 72.503906 61.373047 L 72.503906 66.960938 L 70.871094 66.960938 L 70.871094 57.076172 L 72.503906 57.076172 L 72.503906 58.611328 C 72.87463 58.005228 73.318101 57.557871 73.835938 57.269531 C 74.353773 56.981191 74.969617 56.835937 75.681641 56.835938 z M 63.966797 58.212891 C 63.060586 58.212891 62.334367 58.470475 61.787109 58.982422 C 61.245736 59.494375 60.933947 60.214785 60.851562 61.144531 L 66.642578 61.134766 C 66.630811 60.246206 66.380993 59.537419 65.892578 59.007812 C 65.41005 58.478213 64.767088 58.212891 63.966797 58.212891 z "
       transform="translate(0,902.36216)"
       id="rect4534" />
    <g
       style="font-style:normal;font-weight:normal;font-size:18.07715797px;line-height:125%;font-family:Sans;letter-spacing:0px;word-spacing:0px;fill:#ffffff;fill-opacity:1;stroke:none;stroke-width:1px;stroke-linecap:butt;stroke-linejoin:miter;stroke-opacity:1"
       id="text4464">
      <path
         d="m 47.452935,986.14498 1.783001,0 0,13.17832 -1.783001,0 0,-13.17832 z"
         style=""
         id="path4507" />
      <path
         d="m 54.320136,986.63045 0,2.80691 3.345334,0 0,1.26222 -3.345334,0 0,5.36666 q 0,1.20926 0.32659,1.5535 0.335416,0.34425 1.35049,0.34425 l 1.668254,0 0,1.35931 -1.668254,0 q -1.880095,0 -2.59506,-0.69731 -0.714966,-0.70614 -0.714966,-2.55975 l 0,-5.36666 -1.19161,0 0,-1.26222 1.19161,0 0,-2.80691 1.632946,0 z"
         style=""
         id="path4509" />
      <path
         d="m 68.266381,993.9743 0,0.79441 -7.467419,0 q 0.10592,1.67708 1.006248,2.55975 0.909154,0.87385 2.524447,0.87385 0.935634,0 1.809481,-0.2295 0.882673,-0.22949 1.747694,-0.68848 l 0,1.53585 q -0.873847,0.37072 -1.791828,0.56491 -0.917981,0.19419 -1.862442,0.19419 -2.365565,0 -3.751363,-1.37697 -1.376971,-1.37697 -1.376971,-3.72489 0,-2.42735 1.306357,-3.84845 1.315184,-1.42993 3.539522,-1.42993 1.994842,0 3.151145,1.2887 1.165129,1.27988 1.165129,3.48656 z m -1.624119,-0.47664 q -0.01765,-1.33284 -0.750273,-2.12725 -0.723792,-0.7944 -1.924229,-0.7944 -1.359317,0 -2.180204,0.76792 -0.81206,0.76793 -0.935634,2.16255 l 5.79034,-0.009 z"
         style=""
         id="path4511" />
      <path
         d="m 78.628972,991.33511 q 0.609045,-1.09452 1.456411,-1.6153 0.847367,-0.52077 1.994843,-0.52077 1.544679,0 2.383219,1.08568 0.83854,1.07687 0.83854,3.07171 l 0,5.96687 -1.632946,0 0,-5.91391 q 0,-1.42111 -0.503124,-2.10959 -0.503124,-0.68849 -1.535853,-0.68849 -1.262223,0 -1.994842,0.83854 -0.732619,0.83854 -0.732619,2.28613 l 0,5.58732 -1.632947,0 0,-5.91391 q 0,-1.42993 -0.503124,-2.10959 -0.503124,-0.68849 -1.553506,-0.68849 -1.24457,0 -1.977189,0.84737 -0.732619,0.83854 -0.732619,2.2773 l 0,5.58732 -1.632946,0 0,-9.88594 1.632946,0 0,1.53585 q 0.556085,-0.90915 1.332837,-1.34166 0.776753,-0.43251 1.844789,-0.43251 1.076861,0 1.827134,0.54725 0.7591,0.54726 1.120996,1.58882 z"
         style=""
         id="path4513" />
      <path
         d="m 99.936715,992.21778 q 1.279875,0.27363 1.994845,1.13865 0.72379,0.86502 0.72379,2.13607 0,1.95071 -1.34166,3.01874 -1.341668,1.06804 -3.813155,1.06804 -0.829713,0 -1.712387,-0.16771 -0.873847,-0.15888 -1.809481,-0.48547 l 0,-1.72121 q 0.741446,0.43251 1.62412,0.65317 0.882673,0.22067 1.844788,0.22067 1.67708,0 2.550927,-0.662 0.882678,-0.66201 0.882678,-1.92423 0,-1.16513 -0.82089,-1.81831 -0.812061,-0.662 -2.268472,-0.662 l -1.535853,0 0,-1.46524 1.606466,0 q 1.315184,0 2.012497,-0.52078 0.697312,-0.5296 0.697312,-1.5182 0,-1.01507 -0.723793,-1.5535 -0.714965,-0.54726 -2.056629,-0.54726 -0.73262,0 -1.57116,0.15888 -0.83854,0.15888 -1.844788,0.4943 l 0,-1.58882 q 1.015075,-0.28245 1.897749,-0.42368 0.8915,-0.14123 1.67708,-0.14123 2.030149,0 3.212931,0.92681 1.18278,0.91798 1.18278,2.48914 0,1.09452 -0.62669,1.85361 -0.6267,0.75028 -1.783005,1.04156 z"
         style=""
         id="path4515" />
    </g>
    <g
       style="font-style:normal;font-weight:normal;font-size:18.07715797px;line-height:125%;font-family:Sans;letter-spacing:0px;word-spacing:0px;fill:#ffffff;fill-opacity:1;stroke:none;stroke-width:1px;stroke-linecap:butt;stroke-linejoin:miter;stroke-opacity:1"
       id="text4468">
      <path
         d="m 47.452935,1016.1449 1.783001,0 0,13.1783 -1.783001,0 0,-13.1783 z"
         style=""
         id="path4518" />
      <path
         d="m 54.320136,1016.6304 0,2.8069 3.345334,0 0,1.2622 -3.345334,0 0,5.3667 q 0,1.2092 0.32659,1.5535 0.335416,0.3442 1.35049,0.3442 l 1.668254,0 0,1.3593 -1.668254,0 q -1.880095,0 -2.59506,-0.6973 -0.714966,-0.7061 -0.714966,-2.5597 l 0,-5.3667 -1.19161,0 0,-1.2622 1.19161,0 0,-2.8069 1.632946,0 z"
         style=""
         id="path4520" />
      <path
         d="m 68.266381,1023.9742 0,0.7944 -7.467419,0 q 0.10592,1.6771 1.006248,2.5598 0.909154,0.8738 2.524447,0.8738 0.935634,0 1.809481,-0.2294 0.882673,-0.2295 1.747694,-0.6885 l 0,1.5358 q -0.873847,0.3707 -1.791828,0.5649 -0.917981,0.1942 -1.862442,0.1942 -2.365565,0 -3.751363,-1.377 -1.376971,-1.3769 -1.376971,-3.7248 0,-2.4274 1.306357,-3.8485 1.315184,-1.4299 3.539522,-1.4299 1.994842,0 3.151145,1.2887 1.165129,1.2799 1.165129,3.4865 z m -1.624119,-0.4766 q -0.01765,-1.3328 -0.750273,-2.1272 -0.723792,-0.7945 -1.924229,-0.7945 -1.359317,0 -2.180204,0.768 -0.81206,0.7679 -0.935634,2.1625 l 5.79034,-0.01 z"
         style=""
         id="path4522" />
      <path
         d="m 78.628972,1021.335 q 0.609045,-1.0945 1.456411,-1.6152 0.847367,-0.5208 1.994843,-0.5208 1.544679,0 2.383219,1.0857 0.83854,1.0768 0.83854,3.0717 l 0,5.9668 -1.632946,0 0,-5.9139 q 0,-1.4211 -0.503124,-2.1096 -0.503124,-0.6884 -1.535853,-0.6884 -1.262223,0 -1.994842,0.8385 -0.732619,0.8385 -0.732619,2.2861 l 0,5.5873 -1.632947,0 0,-5.9139 q 0,-1.4299 -0.503124,-2.1096 -0.503124,-0.6884 -1.553506,-0.6884 -1.24457,0 -1.977189,0.8473 -0.732619,0.8386 -0.732619,2.2773 l 0,5.5873 -1.632946,0 0,-9.8859 1.632946,0 0,1.5358 q 0.556085,-0.9091 1.332837,-1.3416 0.776753,-0.4325 1.844789,-0.4325 1.076861,0 1.827134,0.5472 0.7591,0.5473 1.120996,1.5888 z"
         style=""
         id="path4524" />
      <path
         d="m 99.433591,1017.6984 -4.501636,7.0349 4.501636,0 0,-7.0349 z m -0.467817,-1.5535 2.241986,0 0,8.5884 1.8801,0 0,1.4829 -1.8801,0 0,3.107 -1.774169,0 0,-3.107 -5.949221,0 0,-1.7212 5.481404,-8.3501 z"
         style=""
         id="path4526" />
    </g>
    <flowRoot
       xml:space="preserve"
       id="flowRoot4476"
       style="fill:black;stroke:none;stroke-opacity:1;stroke-width:1px;stroke-linejoin:miter;stroke-linecap:butt;fill-opacity:1;font-family:Sans;font-style:normal;font-weight:normal;font-size:40px;line-height:1000%;letter-spacing:0px;word-spacing:0px;text-anchor:middle;text-align:center"><flowRegion
         id="flowRegion4478"><rect
           id="rect4480"
           width="258"
           height="114"
           x="89"
           y="-2.8421709e-14" /></flowRegion><flowPara
         id="flowPara4482"></flowPara></flowRoot>    <path
       style="fill:none;stroke:#ffffff;stroke-width:3;stroke-linecap:butt;stroke-linejoin:miter;stroke-miterlimit:4;stroke-dasharray:none;stroke-opacity:1"
       d="m 151.5,1012.5454 0,-43.80283 30.48416,30.1439 -13.78942,0 c 0,0 6.54526,12.56793 6.98144,13.65893 0.93754,3.0045 -5.42066,5.9932 -6.85879,3.2071 -0.48414,-0.5596 -7.06072,-12.7983 -7.06072,-12.7983 z"
       id="path4825"
       inkscape:connector-curvature="0"
       sodipodi:nodetypes="cccccccc" />
  </g>
</svg>
