<?xml version="1.0" encoding="UTF-8" standalone="no"?>
<!-- Created with Inkscape (http://www.inkscape.org/) -->

<svg
   xmlns:dc="http://purl.org/dc/elements/1.1/"
   xmlns:cc="http://creativecommons.org/ns#"
   xmlns:rdf="http://www.w3.org/1999/02/22-rdf-syntax-ns#"
   xmlns:svg="http://www.w3.org/2000/svg"
   xmlns="http://www.w3.org/2000/svg"
   xmlns:sodipodi="http://sodipodi.sourceforge.net/DTD/sodipodi-0.dtd"
   xmlns:inkscape="http://www.inkscape.org/namespaces/inkscape"
   width="200"
   height="150"
   id="svg2"
   sodipodi:version="0.32"
   inkscape:version="0.91 r13725"
   version="1.1"
   sodipodi:docname="text.svg"
   inkscape:export-filename="/home/flo/wanadev/devel/public/PhotonUI/photonui-site/source/doc/widgets/text.png"
   inkscape:export-xdpi="90"
   inkscape:export-ydpi="90">
  <defs
     id="defs4" />
  <sodipodi:namedview
     id="base"
     pagecolor="#4ec8db"
     bordercolor="#666666"
     borderopacity="1.0"
     inkscape:pageopacity="0"
     inkscape:pageshadow="2"
     inkscape:zoom="1"
     inkscape:cx="218.14286"
     inkscape:cy="-46"
     inkscape:document-units="px"
     inkscape:current-layer="layer1"
     inkscape:window-width="1920"
     inkscape:window-height="1014"
     inkscape:window-x="0"
     inkscape:window-y="27"
     showgrid="false"
     units="px"
     inkscape:window-maximized="1" />
  <metadata
     id="metadata7">
    <rdf:RDF>
      <cc:Work
         rdf:about="">
        <dc:format>image/svg+xml</dc:format>
        <dc:type
           rdf:resource="http://purl.org/dc/dcmitype/StillImage" />
        <dc:title />
      </cc:Work>
    </rdf:RDF>
  </metadata>
  <g
     inkscape:label="Calque 1"
     inkscape:groupmode="layer"
     id="layer1"
     transform="translate(0,-902.36216)">
    <g
       style="font-style:normal;font-weight:normal;font-size:27.49634361px;line-height:129.99999523%;font-family:Sans;letter-spacing:0px;word-spacing:0px;fill:#ffffff;fill-opacity:1;stroke:none;stroke-width:1px;stroke-linecap:butt;stroke-linejoin:miter;stroke-opacity:1"
       id="text4146">
      <path
         d="m 5.642428,926.96867 5.16899,0 0,16.13799 9.075942,0 0,3.90695 -14.244932,0 0,-20.04494 z"
         style="font-style:normal;font-variant:normal;font-weight:bold;font-stretch:normal;line-height:132.00000525%;font-family:Sans;-inkscape-font-specification:'Sans Bold'"
         id="path4685" />
      <path
         d="m 30.09108,935.05109 q -1.597688,0 -2.443522,1.15463 -0.832409,1.14121 -0.832409,3.30279 0,2.16157 0.832409,3.3162 0.845834,1.14121 2.443522,1.14121 1.570836,0 2.403245,-1.14121 0.832409,-1.15463 0.832409,-3.3162 0,-2.16158 -0.832409,-3.30279 -0.832409,-1.15463 -2.403245,-1.15463 z m 0,-3.43704 q 3.8801,0 6.055103,2.09445 2.18843,2.09444 2.18843,5.80001 0,3.70556 -2.18843,5.80001 -2.175003,2.09444 -6.055103,2.09444 -3.893525,0 -6.09538,-2.09444 -2.18843,-2.09445 -2.18843,-5.80001 0,-3.70557 2.18843,-5.80001 2.201855,-2.09445 6.09538,-2.09445 z"
         style="line-height:197.99991846%"
         id="path4687" />
      <path
         d="m 53.009173,936.07146 q -0.631019,-0.29537 -1.262039,-0.42963 -0.617594,-0.14768 -1.248613,-0.14768 -1.852781,0 -2.859727,1.19491 -0.993521,1.18148 -0.993521,3.39676 l 0,6.92779 -4.806489,0 0,-15.03706 4.806489,0 0,2.47037 q 0.926391,-1.47685 2.1213,-2.14815 1.208336,-0.68472 2.886579,-0.68472 0.241668,0 0.523612,0.0268 0.281945,0.0134 0.818983,0.0806 l 0.01343,4.35001 z"
         style="line-height:197.99991846%"
         id="path4689" />
      <path
         d="m 70.436058,939.4548 0,1.36945 -11.23752,0 q 0.174538,1.69167 1.221762,2.5375 1.047224,0.84584 2.926857,0.84584 1.517132,0 3.101394,-0.44306 1.597688,-0.45648 3.275931,-1.36945 l 0,3.70557 q -1.705095,0.64444 -3.410191,0.96666 -1.705095,0.33565 -3.410191,0.33565 -4.081488,0 -6.350474,-2.06759 -2.255559,-2.08102 -2.255559,-5.82686 0,-3.67871 2.215281,-5.78659 2.228708,-2.10787 6.122233,-2.10787 3.544451,0 5.665751,2.13472 2.134726,2.13473 2.134726,5.70603 z m -4.94075,-1.59769 q 0,-1.36944 -0.805557,-2.20185 -0.792131,-0.84584 -2.081022,-0.84584 -1.396298,0 -2.268985,0.79213 -0.872687,0.77871 -1.087502,2.25556 l 6.243066,0 z"
         style="line-height:197.99991846%"
         id="path4691" />
      <path
         d="m 87.997201,934.47377 q 0.912965,-1.39629 2.161578,-2.1213 1.262039,-0.73842 2.765746,-0.73842 2.591208,0 3.947229,1.59769 1.35602,1.59768 1.35602,4.64537 l 0,9.1565 -4.833341,0 0,-7.84075 q 0.01343,-0.17454 0.01343,-0.3625 0.01343,-0.18797 0.01343,-0.53704 0,-1.59769 -0.469909,-2.30927 -0.469908,-0.725 -1.517132,-0.725 -1.369447,0 -2.1213,1.12778 -0.738427,1.12778 -0.765279,3.26251 l 0,7.38427 -4.833341,0 0,-7.84075 q 0,-2.49723 -0.429631,-3.20881 -0.42963,-0.725 -1.530558,-0.725 -1.382873,0 -2.134726,1.14121 -0.751853,1.12778 -0.751853,3.23565 l 0,7.3977 -4.833342,0 0,-15.03706 4.833342,0 0,2.20185 q 0.886113,-1.27546 2.027318,-1.91991 1.154632,-0.64444 2.537505,-0.64444 1.55741,0 2.752319,0.75185 1.19491,0.75185 1.812503,2.10787 z"
         style="line-height:197.99991846%"
         id="path4693" />
      <path
         d="m 112.58011,931.97655 2.47037,0 0,15.03706 -2.47037,0 0,-15.03706 z m 0,-5.85372 2.47037,0 0,3.12825 -2.47037,0 0,-3.12825 z"
         style="font-style:normal;font-variant:normal;font-weight:normal;font-stretch:normal;line-height:129.99999523%;font-family:Sans;-inkscape-font-specification:Sans"
         id="path4695" />
      <path
         d="m 122.59587,944.75805 0,7.97502 -2.4838,0 0,-20.75652 2.4838,0 0,2.28241 q 0.7787,-1.3426 1.96019,-1.98704 1.19491,-0.65787 2.8463,-0.65787 2.73889,0 4.44399,2.175 1.71852,2.175 1.71852,5.71946 0,3.54445 -1.71852,5.71945 -1.7051,2.175 -4.44399,2.175 -1.65139,0 -2.8463,-0.64444 -1.18149,-0.65787 -1.96019,-2.00047 z m 8.40464,-5.24954 q 0,-2.72547 -1.12778,-4.26946 -1.11435,-1.55741 -3.07454,-1.55741 -1.96019,0 -3.08797,1.55741 -1.11435,1.54399 -1.11435,4.26946 0,2.72546 1.11435,4.28287 1.12778,1.54399 3.08797,1.54399 1.96019,0 3.07454,-1.54399 1.12778,-1.55741 1.12778,-4.28287 z"
         style="font-style:normal;font-variant:normal;font-weight:normal;font-stretch:normal;line-height:129.99999523%;font-family:Sans;-inkscape-font-specification:Sans"
         id="path4697" />
      <path
         d="m 147.24591,932.4196 0,2.33612 q -1.04722,-0.53704 -2.175,-0.80556 -1.12778,-0.26852 -2.33612,-0.26852 -1.83935,0 -2.76574,0.56389 -0.91297,0.56389 -0.91297,1.69167 0,0.85926 0.65787,1.35602 0.65788,0.48334 2.64492,0.92639 l 0.84583,0.18797 q 2.63149,0.56389 3.73241,1.59769 1.11436,1.02037 1.11436,2.85972 0,2.09445 -1.66482,3.31621 -1.65139,1.22176 -4.5514,1.22176 -1.20833,0 -2.52407,-0.24166 -1.30232,-0.22824 -2.75232,-0.69815 l 0,-2.55093 q 1.36944,0.71157 2.69861,1.07407 1.32917,0.34908 2.63149,0.34908 1.74537,0 2.68519,-0.59074 0.93981,-0.60417 0.93981,-1.69167 0,-1.00695 -0.68472,-1.54399 -0.6713,-0.53704 -2.96713,-1.0338 l -0.85927,-0.20139 q -2.29583,-0.48333 -3.3162,-1.47685 -1.02038,-1.00695 -1.02038,-2.75232 0,-2.1213 1.50371,-3.27593 1.50371,-1.15463 4.26945,-1.15463 1.36945,0 2.57778,0.20139 1.20834,0.20139 2.22871,0.60416 z"
         style="font-style:normal;font-variant:normal;font-weight:normal;font-stretch:normal;line-height:129.99999523%;font-family:Sans;-inkscape-font-specification:Sans"
         id="path4699" />
      <path
         d="m 151.7436,941.07934 0,-9.10279 2.47038,0 0,9.00881 q 0,2.13473 0.83241,3.2088 0.83241,1.06065 2.49722,1.06065 2.00047,0 3.1551,-1.27546 1.16806,-1.27547 1.16806,-3.47732 l 0,-8.52548 2.47037,0 0,15.03706 -2.47037,0 0,-2.30926 q -0.89954,1.36944 -2.09445,2.04074 -1.18148,0.65787 -2.75232,0.65787 -2.59121,0 -3.9338,-1.61111 -1.3426,-1.61111 -1.3426,-4.71251 z m 6.21622,-9.46529 0,0 z"
         style="font-style:normal;font-variant:normal;font-weight:normal;font-stretch:normal;line-height:129.99999523%;font-family:Sans;-inkscape-font-specification:Sans"
         id="path4701" />
      <path
         d="m 181.15986,934.86313 q 0.92639,-1.66482 2.21528,-2.45695 1.28889,-0.79213 3.03427,-0.79213 2.34954,0 3.625,1.65139 1.27547,1.63796 1.27547,4.67223 l 0,9.07594 -2.4838,0 0,-8.99539 q 0,-2.16157 -0.76528,-3.2088 -0.76528,-1.04722 -2.33612,-1.04722 -1.91991,0 -3.03426,1.27546 -1.11436,1.27547 -1.11436,3.47733 l 0,8.49862 -2.4838,0 0,-8.99539 q 0,-2.175 -0.76528,-3.2088 -0.76527,-1.04722 -2.36296,-1.04722 -1.89306,0 -3.00742,1.28889 -1.11435,1.27547 -1.11435,3.4639 l 0,8.49862 -2.4838,0 0,-15.03706 2.4838,0 0,2.33611 q 0.84584,-1.38287 2.02732,-2.04074 1.18148,-0.65787 2.80602,-0.65787 1.63797,0 2.77917,0.83241 1.15464,0.8324 1.7051,2.41667 z"
         style="font-style:normal;font-variant:normal;font-weight:normal;font-stretch:normal;line-height:129.99999523%;font-family:Sans;-inkscape-font-specification:Sans"
         id="path4703" />
      <path
         d="m 14.610962,984.29142 q -0.99352,1.30232 -2.349541,1.97362 -1.356021,0.67129 -3.0074127,0.67129 -2.2555595,0 -3.5713025,-1.53055 -1.302317,-1.54399 -1.302317,-4.21575 0,-2.22871 0.792131,-4.2426 0.7921309,-2.02732 2.2958372,-3.62501 0.9935203,-1.06065 2.2421335,-1.61111 1.2486135,-0.56389 2.6180605,-0.56389 1.450002,0 2.55093,0.69815 1.114354,0.69815 1.718521,2.00046 l 1.611114,-8.18983 2.483801,0 -4.068063,20.89078 -2.4838,0 0.469908,-2.25556 z m -7.666217,-3.54445 q 0,1.94676 0.8726867,3.03427 0.8861126,1.0875 2.4435223,1.0875 1.154632,0 2.134726,-0.55047 0.993521,-0.56389 1.745374,-1.65139 0.792131,-1.12778 1.248613,-2.60463 0.456482,-1.47686 0.456482,-2.91343 0,-1.86621 -0.886112,-2.91343 -0.872687,-1.04723 -2.416671,-1.04723 -1.168058,0 -2.175004,0.55047 -1.0069461,0.55046 -1.7185214,1.58426 -0.7787051,1.11435 -1.2486133,2.59121 -0.4564823,1.47685 -0.4564823,2.83287 z"
         style="font-style:italic;font-variant:normal;font-weight:normal;font-stretch:normal;line-height:129.99999523%;font-family:Sans;-inkscape-font-specification:'Sans Italic'"
         id="path4705" />
      <path
         d="m 27.553576,986.93633 q -2.644911,0 -4.188896,-1.62454 -1.530558,-1.63796 -1.530558,-4.45741 0,-1.63797 0.523612,-3.32964 0.537038,-1.70509 1.382873,-2.85972 1.329169,-1.79908 2.967135,-2.65834 1.637965,-0.85926 3.705562,-0.85926 2.564356,0 4.135192,1.59769 1.584262,1.59768 1.584262,4.17547 0,1.78565 -0.523612,3.55787 -0.523612,1.77223 -1.369447,2.94028 -1.315743,1.79908 -2.953709,2.65834 -1.637965,0.85926 -3.732414,0.85926 z m -3.155098,-6.16251 q 0,2.04075 0.845835,3.06112 0.859261,1.00695 2.591208,1.00695 2.483801,0 4.108341,-2.16158 1.637966,-2.17501 1.637966,-5.50464 0,-1.94676 -0.872687,-2.94028 -0.872687,-0.99352 -2.564356,-0.99352 -1.396299,0 -2.483801,0.65787 -1.087502,0.64444 -1.946763,1.97361 -0.631019,0.99352 -0.980094,2.26899 -0.335649,1.27546 -0.335649,2.63148 z"
         style="font-style:italic;font-variant:normal;font-weight:normal;font-stretch:normal;line-height:129.99999523%;font-family:Sans;-inkscape-font-specification:'Sans Italic'"
         id="path4707" />
      <path
         d="m 42.416104,965.6562 2.470374,0 -4.068062,20.89078 -2.470375,0 4.068063,-20.89078 z"
         style="font-style:italic;font-variant:normal;font-weight:normal;font-stretch:normal;line-height:129.99999523%;font-family:Sans;-inkscape-font-specification:'Sans Italic'"
         id="path4709" />
      <path
         d="m 51.988805,986.93633 q -2.644912,0 -4.188896,-1.62454 -1.530558,-1.63796 -1.530558,-4.45741 0,-1.63797 0.523612,-3.32964 0.537038,-1.70509 1.382872,-2.85972 1.329169,-1.79908 2.967135,-2.65834 1.637966,-0.85926 3.705562,-0.85926 2.564356,0 4.135192,1.59769 1.584262,1.59768 1.584262,4.17547 0,1.78565 -0.523612,3.55787 -0.523612,1.77223 -1.369447,2.94028 -1.315743,1.79908 -2.953708,2.65834 -1.637966,0.85926 -3.732414,0.85926 z m -3.155098,-6.16251 q 0,2.04075 0.845835,3.06112 0.85926,1.00695 2.591208,1.00695 2.4838,0 4.10834,-2.16158 1.637966,-2.17501 1.637966,-5.50464 0,-1.94676 -0.872687,-2.94028 -0.872686,-0.99352 -2.564356,-0.99352 -1.396299,0 -2.483801,0.65787 -1.087501,0.64444 -1.946762,1.97361 -0.63102,0.99352 -0.980094,2.26899 -0.335649,1.27546 -0.335649,2.63148 z"
         style="font-style:italic;font-variant:normal;font-weight:normal;font-stretch:normal;line-height:129.99999523%;font-family:Sans;-inkscape-font-specification:'Sans Italic'"
         id="path4711" />
      <path
         d="m 74.074491,973.79233 q -0.375927,-0.20139 -0.859261,-0.3088 -0.483334,-0.10741 -1.033798,-0.10741 -1.973614,0 -3.450469,1.50371 -1.476854,1.49028 -1.960188,4.00093 l -1.517133,7.66622 -2.470374,0 2.940283,-15.03706 2.470374,0 -0.469908,2.33611 q 0.980094,-1.30231 2.336115,-2.00046 1.369447,-0.69815 2.913431,-0.69815 0.402778,0 0.792131,0.0537 0.389353,0.0403 0.778705,0.14769 l -0.469908,2.44352 z"
         style="font-style:italic;font-variant:normal;font-weight:normal;font-stretch:normal;line-height:129.99999523%;font-family:Sans;-inkscape-font-specification:'Sans Italic'"
         id="path4713" />
      <path
         d="m 95.649992,971.95297 -0.469909,2.33612 q -0.980094,-0.53704 -2.067596,-0.80556 -1.087502,-0.26852 -2.242133,-0.26852 -1.946763,0 -3.074543,0.6713 -1.114353,0.65787 -1.114353,1.79908 0,1.32917 2.604634,2.04074 0.201389,0.0537 0.295371,0.0806 l 0.792131,0.24167 q 2.470374,0.68472 3.289357,1.43657 0.832409,0.75185 0.832409,2.05417 0,2.38982 -1.906485,3.89353 -1.893059,1.5037 -4.967601,1.5037 -1.194909,0 -2.510652,-0.22824 -1.315743,-0.22824 -2.900005,-0.71157 l 0.483334,-2.55093 q 1.356021,0.69815 2.671764,1.06065 1.315743,0.3625 2.524078,0.3625 1.812503,0 2.940283,-0.77871 1.141205,-0.7787 1.141205,-1.97361 0,-1.28889 -2.98056,-2.08102 l -0.255093,-0.0671 -0.845835,-0.21482 q -1.879633,-0.49676 -2.75232,-1.30232 -0.872686,-0.81898 -0.872686,-2.08102 0,-2.40324 1.799077,-3.81297 1.812503,-1.40972 4.913897,-1.40972 1.221762,0 2.376393,0.20139 1.168058,0.20139 2.295838,0.60416 z"
         style="font-style:italic;font-variant:normal;font-weight:normal;font-stretch:normal;line-height:129.99999523%;font-family:Sans;-inkscape-font-specification:'Sans Italic'"
         id="path4715" />
      <path
         d="m 101.27546,965.6562 2.47038,0 -0.60417,3.12825 -2.47037,0 0.60416,-3.12825 z m -1.12778,5.85372 2.47038,0 -2.940284,15.03706 -2.470375,0 2.940279,-15.03706 z"
         style="font-style:italic;font-variant:normal;font-weight:normal;font-stretch:normal;line-height:129.99999523%;font-family:Sans;-inkscape-font-specification:'Sans Italic'"
         id="path4717" />
      <path
         d="m 115.49354,971.50992 -0.37592,1.91991 -4.92733,0 -1.59768,8.16298 q -0.0806,0.45648 -0.12084,0.76527 -0.0403,0.3088 -0.0403,0.48334 0,0.85926 0.51019,1.24861 0.52361,0.38935 1.66482,0.38935 l 2.49722,0 -0.4162,2.0676 -2.36297,0 q -2.20185,0 -3.28935,-0.85926 -1.07408,-0.85926 -1.07408,-2.60463 0,-0.3088 0.0403,-0.6713 0.0403,-0.37593 0.12083,-0.81898 l 1.59769,-8.16298 -2.09445,0 0.38935,-1.91991 2.05417,0 0.83241,-4.26945 2.47038,0 -0.81899,4.26945 4.94075,0 z"
         style="font-style:italic;font-variant:normal;font-weight:normal;font-stretch:normal;line-height:129.99999523%;font-family:Sans;-inkscape-font-specification:'Sans Italic'"
         id="path4719" />
      <path
         d="m 138.18339,977.9678 -1.67824,8.57918 -2.47037,0 0.45648,-2.28241 q -1.0875,1.34259 -2.4838,2.01389 -1.38287,0.65787 -3.08797,0.65787 -1.91991,0 -3.1551,-1.16805 -1.22176,-1.18149 -1.22176,-3.02084 0,-2.63149 2.09445,-4.16205 2.10787,-1.53056 5.80001,-1.53056 l 3.43704,0 0.13426,-0.65787 q 0.0268,-0.1074 0.0403,-0.22824 0.0134,-0.13426 0.0134,-0.40278 0,-1.19491 -0.98009,-1.85278 -0.96667,-0.67129 -2.72547,-0.67129 -1.20833,0 -2.4838,0.30879 -1.26204,0.3088 -2.60463,0.92639 l 0.42963,-2.28241 q 1.3963,-0.52361 2.72547,-0.7787 1.34259,-0.26852 2.5912,-0.26852 2.65834,0 4.04121,1.15463 1.3963,1.15463 1.3963,3.35649 0,0.44305 -0.0671,1.04722 -0.0671,0.59074 -0.20139,1.26204 z m -2.67176,1.02037 -2.47037,0 q -3.03427,0 -4.4977,0.81898 -1.45,0.80556 -1.45,2.51066 0,1.18148 0.73843,1.85278 0.75185,0.6713 2.06759,0.6713 2.0139,0 3.5176,-1.43658 1.50371,-1.45 1.98704,-3.86667 l 0.10741,-0.55047 z"
         style="font-style:italic;font-variant:normal;font-weight:normal;font-stretch:normal;line-height:129.99999523%;font-family:Sans;-inkscape-font-specification:'Sans Italic'"
         id="path4721" />
      <path
         d="m 164.96817,977.47104 -1.7588,9.07594 -2.47037,0 1.73194,-8.99539 q 0.10741,-0.57731 0.16111,-0.99352 0.0537,-0.4162 0.0537,-0.71157 0,-1.20834 -0.6713,-1.87963 -0.6713,-0.6713 -1.87963,-0.6713 -1.79908,0 -3.2088,1.35602 -1.40973,1.34259 -1.82593,3.50417 l -1.65139,8.39122 -2.47038,0 1.7588,-8.99539 q 0.10741,-0.49676 0.16111,-0.91296 0.0537,-0.42963 0.0537,-0.76528 0,-1.22176 -0.6713,-1.89306 -0.6713,-0.68472 -1.85278,-0.68472 -1.82593,0 -3.23566,1.35602 -1.40972,1.34259 -1.82593,3.50417 l -1.65139,8.39122 -2.47037,0 2.94028,-15.03706 2.47038,0 -0.46991,2.33611 q 1.00694,-1.31574 2.34954,-2.00046 1.35602,-0.69815 2.9,-0.69815 1.63797,0 2.68519,0.85926 1.06065,0.85926 1.27547,2.38982 1.12778,-1.58427 2.60463,-2.41667 1.49028,-0.83241 3.14167,-0.83241 1.93334,0 2.98057,1.11435 1.06065,1.11435 1.06065,3.1551 0,0.44306 -0.0537,0.98009 -0.0537,0.52362 -0.16111,1.07408 z"
         style="font-style:italic;font-variant:normal;font-weight:normal;font-stretch:normal;line-height:129.99999523%;font-family:Sans;-inkscape-font-specification:'Sans Italic'"
         id="path4723" />
      <path
         d="m 180.3006,977.68585 q 0.0403,-0.21481 0.0537,-0.44305 0.0268,-0.22824 0.0268,-0.45648 0,-1.63797 -0.96667,-2.59121 -0.95324,-0.95324 -2.60463,-0.95324 -1.83936,0 -3.24908,1.16805 -1.40972,1.15463 -2.13473,3.28936 l 8.87456,-0.0134 z m 2.14815,1.93334 -11.49261,0 q -0.0806,0.51019 -0.10741,0.80556 -0.0268,0.29537 -0.0268,0.51018 0,1.86621 1.1412,2.88658 1.15463,1.02038 3.24908,1.02038 1.61112,0 3.04769,-0.36251 1.43658,-0.3625 2.67177,-1.06065 l -0.46991,2.44353 q -1.32917,0.53704 -2.75232,0.80555 -1.40973,0.26852 -2.87315,0.26852 -3.12825,0 -4.81992,-1.49028 -1.67824,-1.5037 -1.67824,-4.25602 0,-2.34954 0.8324,-4.36344 0.84584,-2.02731 2.47038,-3.61158 1.04722,-0.99352 2.4838,-1.53055 1.45,-0.53704 3.07454,-0.53704 2.55093,0 4.05464,1.53056 1.51713,1.53055 1.51713,4.10834 0,0.61759 -0.0806,1.32916 -0.0806,0.69815 -0.24167,1.50371 z"
         style="font-style:italic;font-variant:normal;font-weight:normal;font-stretch:normal;line-height:129.99999523%;font-family:Sans;-inkscape-font-specification:'Sans Italic'"
         id="path4725" />
      <path
         d="m 195.61961,971.50992 -0.37593,1.91991 -4.92732,0 -1.59769,8.16298 q -0.0806,0.45648 -0.12083,0.76527 -0.0403,0.3088 -0.0403,0.48334 0,0.85926 0.51019,1.24861 0.52361,0.38935 1.66482,0.38935 l 2.49722,0 -0.4162,2.0676 -2.36297,0 q -2.20185,0 -3.28936,-0.85926 -1.07407,-0.85926 -1.07407,-2.60463 0,-0.3088 0.0403,-0.6713 0.0403,-0.37593 0.12083,-0.81898 l 1.59769,-8.16298 -2.09445,0 0.38935,-1.91991 2.05417,0 0.83241,-4.26945 2.47037,0 -0.81898,4.26945 4.94075,0 z"
         style="font-style:italic;font-variant:normal;font-weight:normal;font-stretch:normal;line-height:129.99999523%;font-family:Sans;-inkscape-font-specification:'Sans Italic'"
         id="path4727" />
      <path
         d="m 16.530873,1013.7524 0,2.3092 q -1.047224,-0.5773 -2.107874,-0.8592 -1.047224,-0.2954 -2.1213,-0.2954 -2.4032452,0 -3.7324141,1.5306 -1.329169,1.5171 -1.329169,4.2694 0,2.7523 1.329169,4.2829 1.3291689,1.5171 3.7324141,1.5171 1.074076,0 2.1213,-0.2819 1.06065,-0.2954 2.107874,-0.8727 l 0,2.2824 q -1.033798,0.4833 -2.148152,0.725 -1.100928,0.2417 -2.349541,0.2417 -3.3967654,0 -5.3972318,-2.1347 -2.0004664,-2.1348 -2.0004664,-5.7598 0,-3.6787 2.0138923,-5.7866 2.0273184,-2.1078 5.5449169,-2.1078 1.141206,0 2.228708,0.2416 1.087502,0.2283 2.107874,0.6982 z"
         style="line-height:129.99999523%"
         id="path4729" />
      <path
         d="m 26.68089,1014.907 q -1.987041,0 -3.141672,1.5574 -1.154632,1.544 -1.154632,4.2426 0,2.6986 1.141206,4.2561 1.154631,1.5439 3.155098,1.5439 1.973614,0 3.128246,-1.5574 1.154632,-1.5574 1.154632,-4.2426 0,-2.6717 -1.154632,-4.2291 -1.154632,-1.5709 -3.128246,-1.5709 z m 0,-2.0944 q 3.222228,0 5.061583,2.0944 1.839355,2.0945 1.839355,5.8 0,3.6922 -1.839355,5.8 -1.839355,2.0945 -5.061583,2.0945 -3.235654,0 -5.075009,-2.0945 -1.825929,-2.1078 -1.825929,-5.8 0,-3.7055 1.825929,-5.8 1.839355,-2.0944 5.075009,-2.0944 z"
         style="line-height:129.99999523%"
         id="path4731" />
      <path
         d="m 50.162875,1019.1362 0,9.0759 -2.470375,0 0,-8.9954 q 0,-2.1347 -0.832409,-3.1953 -0.832409,-1.0607 -2.497226,-1.0607 -2.000467,0 -3.155099,1.2755 -1.154631,1.2754 -1.154631,3.4773 l 0,8.4986 -2.483801,0 0,-15.037 2.483801,0 0,2.3361 q 0.886113,-1.356 2.081022,-2.0273 1.208335,-0.6713 2.779171,-0.6713 2.591209,0 3.920378,1.6111 1.329169,1.5977 1.329169,4.7125 z"
         style="line-height:129.99999523%"
         id="path4733" />
      <path
         d="m 64.703179,1013.6181 0,2.3361 q -1.047224,-0.537 -2.175004,-0.8055 -1.12778,-0.2685 -2.336115,-0.2685 -1.839355,0 -2.765745,0.5639 -0.912965,0.5638 -0.912965,1.6916 0,0.8593 0.657872,1.356 0.657871,0.4834 2.644911,0.9264 l 0.845835,0.188 q 2.631486,0.5639 3.732414,1.5977 1.114354,1.0204 1.114354,2.8597 0,2.0945 -1.664818,3.3162 -1.651392,1.2218 -4.551397,1.2218 -1.208335,0 -2.524078,-0.2417 -1.302317,-0.2282 -2.75232,-0.6981 l 0,-2.551 q 1.369447,0.7116 2.698616,1.0741 1.329169,0.3491 2.631486,0.3491 1.745374,0 2.68519,-0.5908 0.939816,-0.6041 0.939816,-1.6916 0,-1.007 -0.684723,-1.544 -0.671297,-0.537 -2.967135,-1.0338 l -0.85926,-0.2014 q -2.295838,-0.4833 -3.31621,-1.4768 -1.020372,-1.007 -1.020372,-2.7524 0,-2.1213 1.503706,-3.2759 1.503707,-1.1546 4.269452,-1.1546 1.369447,0 2.577782,0.2014 1.208336,0.2013 2.228708,0.6041 z"
         style="line-height:129.99999523%"
         id="path4735" />
      <path
         d="m 82.318023,1020.076 0,1.2083 -11.358352,0 q 0.161111,2.551 1.530558,3.8936 1.382873,1.3291 3.839821,1.3291 1.423151,0 2.75232,-0.349 1.342595,-0.3491 2.658338,-1.0473 l 0,2.3362 q -1.329169,0.5638 -2.725468,0.8592 -1.396299,0.2954 -2.832875,0.2954 -3.598155,0 -5.706029,-2.0945 -2.094448,-2.0944 -2.094448,-5.6657 0,-3.6922 1.987041,-5.8537 2.000466,-2.175 5.383805,-2.175 3.034265,0 4.793064,1.9602 1.772225,1.9467 1.772225,5.3032 z m -2.470374,-0.725 q -0.02685,-2.0273 -1.141206,-3.2356 -1.100928,-1.2084 -2.926857,-1.2084 -2.067596,0 -3.316209,1.1681 -1.235187,1.168 -1.423151,3.2893 l 8.807423,-0.013 z"
         style="line-height:129.99999523%"
         id="path4737" />
      <path
         d="m 97.193974,1013.7524 0,2.3092 q -1.047224,-0.5773 -2.107874,-0.8592 -1.047224,-0.2954 -2.1213,-0.2954 -2.403245,0 -3.732414,1.5306 -1.329169,1.5171 -1.329169,4.2694 0,2.7523 1.329169,4.2829 1.329169,1.5171 3.732414,1.5171 1.074076,0 2.1213,-0.2819 1.06065,-0.2954 2.107874,-0.8727 l 0,2.2824 q -1.033798,0.4833 -2.148152,0.725 -1.100928,0.2417 -2.349541,0.2417 -3.396765,0 -5.397232,-2.1347 -2.000466,-2.1348 -2.000466,-5.7598 0,-3.6787 2.013892,-5.7866 2.027319,-2.1078 5.544917,-2.1078 1.141206,0 2.228708,0.2416 1.087502,0.2283 2.107874,0.6982 z"
         style="line-height:129.99999523%"
         id="path4739" />
      <path
         d="m 103.96065,1008.9056 0,4.2695 5.08844,0 0,1.9199 -5.08844,0 0,8.163 q 0,1.8393 0.49676,2.3629 0.51019,0.5236 2.05417,0.5236 l 2.53751,0 0,2.0676 -2.53751,0 q -2.85972,0 -3.94723,-1.0606 -1.0875,-1.0741 -1.0875,-3.8935 l 0,-8.163 -1.812502,0 0,-1.9199 1.812502,0 0,-4.2695 2.4838,0 z"
         style="line-height:129.99999523%"
         id="path4741" />
      <path
         d="m 125.17365,1020.076 0,1.2083 -11.35835,0 q 0.16111,2.551 1.53056,3.8936 1.38287,1.3291 3.83982,1.3291 1.42315,0 2.75232,-0.349 1.34259,-0.3491 2.65834,-1.0473 l 0,2.3362 q -1.32917,0.5638 -2.72547,0.8592 -1.3963,0.2954 -2.83288,0.2954 -3.59815,0 -5.70602,-2.0945 -2.09445,-2.0944 -2.09445,-5.6657 0,-3.6922 1.98704,-5.8537 2.00046,-2.175 5.3838,-2.175 3.03427,0 4.79307,1.9602 1.77222,1.9467 1.77222,5.3032 z m -2.47037,-0.725 q -0.0269,-2.0273 -1.14121,-3.2356 -1.10093,-1.2084 -2.92685,-1.2084 -2.0676,0 -3.31621,1.1681 -1.23519,1.168 -1.42315,3.2893 l 8.80742,-0.013 z"
         style="line-height:157.00000525%"
         id="path4743" />
      <path
         d="m 131.67181,1008.9056 0,4.2695 5.08844,0 0,1.9199 -5.08844,0 0,8.163 q 0,1.8393 0.49676,2.3629 0.51019,0.5236 2.05417,0.5236 l 2.53751,0 0,2.0676 -2.53751,0 q -2.85973,0 -3.94723,-1.0606 -1.0875,-1.0741 -1.0875,-3.8935 l 0,-8.163 -1.8125,0 0,-1.9199 1.8125,0 0,-4.2695 2.4838,0 z"
         style="line-height:157.00000525%"
         id="path4745" />
      <path
         d="m 139.76767,1022.2779 0,-9.1028 2.47037,0 0,9.0088 q 0,2.1347 0.83241,3.2088 0.83241,1.0606 2.49723,1.0606 2.00046,0 3.15509,-1.2754 1.16806,-1.2755 1.16806,-3.4774 l 0,-8.5254 2.47038,0 0,15.037 -2.47038,0 0,-2.3092 q -0.89954,1.3694 -2.09445,2.0407 -1.18148,0.6579 -2.75232,0.6579 -2.5912,0 -3.9338,-1.6111 -1.34259,-1.6111 -1.34259,-4.7125 z m 6.21621,-9.4653 0,0 z"
         style="line-height:157.00000525%"
         id="path4747" />
      <path
         d="m 166.18992,1015.4843 q -0.4162,-0.2416 -0.91296,-0.349 -0.48334,-0.1209 -1.07408,-0.1209 -2.09445,0 -3.22223,1.3695 -1.11435,1.356 -1.11435,3.9069 l 0,7.9213 -2.4838,0 0,-15.037 2.4838,0 0,2.3361 q 0.7787,-1.3695 2.02732,-2.0273 1.24861,-0.6713 3.03426,-0.6713 0.25509,0 0.56389,0.04 0.3088,0.027 0.68472,0.094 l 0.0134,2.5375 z"
         style="font-style:normal;font-variant:normal;font-weight:normal;font-stretch:normal;line-height:132.00000525%;font-family:Sans;-inkscape-font-specification:Sans"
         id="path4749" />
      <path
         d="m 166.63299,1024.8019 2.83287,0 0,3.4102 -2.83287,0 0,-3.4102 z"
         style="font-style:normal;font-variant:normal;font-weight:normal;font-stretch:normal;line-height:132.00000525%;font-family:Sans;-inkscape-font-specification:Sans"
         id="path4751" />
      <path
         d="m 175.3867,1024.8019 2.83287,0 0,3.4102 -2.83287,0 0,-3.4102 z"
         style="font-style:normal;font-variant:normal;font-weight:normal;font-stretch:normal;line-height:132.00000525%;font-family:Sans;-inkscape-font-specification:Sans"
         id="path4753" />
      <path
         d="m 184.14042,1024.8019 2.83287,0 0,3.4102 -2.83287,0 0,-3.4102 z"
         style="font-style:normal;font-variant:normal;font-weight:normal;font-stretch:normal;line-height:132.00000525%;font-family:Sans;-inkscape-font-specification:Sans"
         id="path4755" />
    </g>
    <rect
       style="opacity:1;fill:#ffffff;fill-opacity:1;stroke:none;stroke-width:4;stroke-linecap:round;stroke-linejoin:round;stroke-miterlimit:4;stroke-dasharray:none;stroke-dashoffset:0;stroke-opacity:1"
       id="rect4148"
       width="118"
       height="2"
       x="79"
       y="992.36218"
       rx="0"
       ry="0" />
  </g>
</svg>
