<?xml version="1.0" encoding="UTF-8" standalone="no"?>
<!-- Created with Inkscape (http://www.inkscape.org/) -->

<svg
   xmlns:dc="http://purl.org/dc/elements/1.1/"
   xmlns:cc="http://creativecommons.org/ns#"
   xmlns:rdf="http://www.w3.org/1999/02/22-rdf-syntax-ns#"
   xmlns:svg="http://www.w3.org/2000/svg"
   xmlns="http://www.w3.org/2000/svg"
   xmlns:sodipodi="http://sodipodi.sourceforge.net/DTD/sodipodi-0.dtd"
   xmlns:inkscape="http://www.inkscape.org/namespaces/inkscape"
   width="200"
   height="150"
   id="svg2"
   sodipodi:version="0.32"
   inkscape:version="0.91 r13725"
   version="1.1"
   sodipodi:docname="window.svg"
   inkscape:export-filename="/home/flo/wanadev/devel/public/PhotonUI/photonui-site/source/widgets/window.png"
   inkscape:export-xdpi="90"
   inkscape:export-ydpi="90">
  <defs
     id="defs4" />
  <sodipodi:namedview
     id="base"
     pagecolor="#4ec8db"
     bordercolor="#666666"
     borderopacity="1.0"
     inkscape:pageopacity="0"
     inkscape:pageshadow="2"
     inkscape:zoom="1"
     inkscape:cx="32.142857"
     inkscape:cy="-40"
     inkscape:document-units="px"
     inkscape:current-layer="layer1"
     inkscape:window-width="1920"
     inkscape:window-height="1014"
     inkscape:window-x="0"
     inkscape:window-y="27"
     showgrid="false"
     units="px"
     inkscape:window-maximized="1" />
  <metadata
     id="metadata7">
    <rdf:RDF>
      <cc:Work
         rdf:about="">
        <dc:format>image/svg+xml</dc:format>
        <dc:type
           rdf:resource="http://purl.org/dc/dcmitype/StillImage" />
        <dc:title></dc:title>
      </cc:Work>
    </rdf:RDF>
  </metadata>
  <g
     inkscape:label="Calque 1"
     inkscape:groupmode="layer"
     id="layer1"
     transform="translate(0,-902.36216)">
    <rect
       style="opacity:1;fill:none;fill-opacity:1;stroke:#ffffff;stroke-width:4;stroke-linecap:round;stroke-linejoin:miter;stroke-miterlimit:4;stroke-dasharray:none;stroke-dashoffset:0;stroke-opacity:1"
       id="rect4133"
       width="191"
       height="136"
       x="5"
       y="909.36206"
       rx="4"
       ry="4" />
    <path
       style="opacity:1;fill:#ffffff;fill-opacity:1;stroke:none;stroke-width:4;stroke-linecap:round;stroke-linejoin:miter;stroke-miterlimit:4;stroke-dasharray:none;stroke-dashoffset:0;stroke-opacity:1"
       d="M 6 7 L 6 42 L 195 42 L 195 7 L 6 7 z M 37.361328 13.521484 L 39.560547 13.521484 L 39.560547 16.308594 L 37.361328 16.308594 L 37.361328 13.521484 z M 68.517578 13.521484 L 70.71875 13.521484 L 70.71875 32.130859 L 68.517578 32.130859 L 68.517578 30.123047 C 68.055114 30.9204 67.469408 31.513597 66.759766 31.904297 C 66.058096 32.287024 65.211372 32.478516 64.222656 32.478516 C 62.604033 32.478516 61.284281 31.832722 60.263672 30.541016 C 59.251035 29.249309 58.746094 27.550326 58.746094 25.445312 C 58.746094 23.340307 59.251035 21.643269 60.263672 20.351562 C 61.284281 19.059849 62.604033 18.414062 64.222656 18.414062 C 65.211372 18.414062 66.058096 18.609293 66.759766 19 C 67.469408 19.382727 68.055114 19.972178 68.517578 20.769531 L 68.517578 13.521484 z M 12.183594 14.275391 L 14.625 14.275391 L 18.378906 29.369141 L 22.123047 14.275391 L 24.837891 14.275391 L 28.59375 29.369141 L 32.337891 14.275391 L 34.789062 14.275391 L 30.304688 32.130859 L 27.265625 32.130859 L 23.498047 16.630859 L 19.695312 32.130859 L 16.658203 32.130859 L 12.183594 14.275391 z M 175.11914 17.527344 L 180.60938 23.017578 L 186.09766 17.527344 L 187.52148 18.974609 L 182.05664 24.464844 L 187.52148 29.931641 L 186.09766 31.378906 L 180.60938 25.888672 L 175.11914 31.378906 L 173.70703 29.931641 L 179.16211 24.464844 L 173.70703 18.974609 L 175.11914 17.527344 z M 50.613281 18.414062 C 52.15217 18.414062 53.316091 18.89083 54.105469 19.847656 C 54.894847 20.796503 55.289062 22.197022 55.289062 24.046875 L 55.289062 32.130859 L 53.087891 32.130859 L 53.087891 24.119141 C 53.087891 22.851354 52.842014 21.901391 52.347656 21.271484 C 51.853298 20.641578 51.111763 20.326172 50.123047 20.326172 C 48.934994 20.326172 47.998223 20.705411 47.3125 21.462891 C 46.626778 22.220377 46.283203 23.252894 46.283203 24.560547 L 46.283203 32.130859 L 44.070312 32.130859 L 44.070312 18.736328 L 46.283203 18.736328 L 46.283203 20.816406 C 46.809455 20.01108 47.427076 19.410392 48.136719 19.011719 C 48.854335 18.613039 49.680381 18.414062 50.613281 18.414062 z M 80.441406 18.414062 C 82.35505 18.414062 83.858801 19.035424 84.951172 20.279297 C 86.043543 21.523164 86.589844 23.244626 86.589844 25.445312 C 86.589844 27.638032 86.043543 29.361441 84.951172 30.613281 C 83.858801 31.857148 82.35505 32.478516 80.441406 32.478516 C 78.519789 32.478516 77.012293 31.857148 75.919922 30.613281 C 74.835524 29.361441 74.292969 27.638033 74.292969 25.445312 C 74.292969 23.244626 74.835524 21.523164 75.919922 20.279297 C 77.012293 19.035424 78.519789 18.414062 80.441406 18.414062 z M 37.361328 18.736328 L 39.560547 18.736328 L 39.560547 32.130859 L 37.361328 32.130859 L 37.361328 18.736328 z M 88.945312 18.736328 L 91.146484 18.736328 L 93.896484 29.189453 L 96.634766 18.736328 L 99.230469 18.736328 L 101.98242 29.189453 L 104.7207 18.736328 L 106.92188 18.736328 L 103.41797 32.130859 L 100.82227 32.130859 L 97.939453 21.152344 L 95.044922 32.130859 L 92.449219 32.130859 L 88.945312 18.736328 z M 64.761719 20.255859 C 63.597585 20.255859 62.679541 20.717651 62.009766 21.642578 C 61.347964 22.559531 61.017578 23.826693 61.017578 25.445312 C 61.017578 27.06394 61.347964 28.336792 62.009766 29.261719 C 62.679541 30.178672 63.597585 30.636719 64.761719 30.636719 C 65.925851 30.636719 66.841943 30.178672 67.511719 29.261719 C 68.181494 28.336792 68.517578 27.06394 68.517578 25.445312 C 68.517578 23.826694 68.181494 22.559531 67.511719 21.642578 C 66.841943 20.717651 65.925851 20.255859 64.761719 20.255859 z M 80.441406 20.279297 C 79.261326 20.279297 78.328301 20.741089 77.642578 21.666016 C 76.956856 22.582969 76.613281 23.842639 76.613281 25.445312 C 76.613281 27.047992 76.953111 28.313355 77.630859 29.238281 C 78.316581 30.155235 79.253352 30.613281 80.441406 30.613281 C 81.613513 30.613281 82.542794 30.149536 83.228516 29.224609 C 83.914238 28.299683 84.257812 27.040019 84.257812 25.445312 C 84.257812 23.858586 83.914238 22.602661 83.228516 21.677734 C 82.542794 20.744834 81.613513 20.279297 80.441406 20.279297 z "
       id="rect4171"
       transform="translate(0,902.36216)" />
  </g>
</svg>
